<svg version="1.1" id="Layer_1" xmlns="http://www.w3.org/2000/svg" xmlns:xlink="http://www.w3.org/1999/xlink" x="0px" y="0px"
	 width="100%" viewBox="0 0 512 512" enable-background="new 0 0 512 512" xml:space="preserve">
<path fill="#000000" opacity="1.000000" stroke="none" 
	d="
M396.783081,1.296475 
	C434.480865,1.000000 471.961792,1.034637 509.442383,0.930301 
	C512.258423,0.922462 513.095520,1.291241 513.093506,4.439052 
	C512.987793,172.852966 512.983215,341.266968 513.116028,509.680847 
	C513.118774,513.173218 511.810852,513.038391 509.322601,513.036865 
	C434.527527,512.991577 359.732422,513.000000 284.468658,513.000000 
	C282.972443,509.807220 285.625092,509.922516 287.332367,509.539062 
	C292.677643,508.338623 298.097137,507.477997 303.792694,506.012512 
	C310.811218,504.487946 317.119385,502.040100 323.811584,499.600525 
	C324.592499,499.283936 325.043365,499.126556 325.828369,498.871887 
	C326.588623,498.611023 327.018555,498.458618 327.752777,498.160828 
	C331.873688,496.205566 335.922211,494.910492 339.908752,492.665955 
	C340.399719,492.404846 340.597595,492.303314 341.094116,492.053864 
	C341.792358,491.710876 342.192505,491.516937 342.888367,491.165100 
	C346.914703,488.936310 350.683624,486.931824 354.538391,484.387726 
	C385.280792,465.517700 408.867432,440.163147 427.223938,409.726349 
	C427.997864,408.443146 428.740570,407.140808 429.698639,405.555847 
	C432.581360,399.980072 435.428406,394.782196 437.842346,388.976379 
	C440.888489,383.296875 443.273315,377.716522 445.622559,371.023193 
	C446.109558,369.899811 446.200073,369.701508 446.413513,369.202332 
	C446.611145,368.698364 446.685852,368.495270 446.867218,367.983826 
	C447.044983,367.468170 447.116089,367.260895 447.294312,366.741028 
	C447.544617,366.002533 447.683838,365.575348 447.909637,364.809570 
	C449.264771,360.068329 451.125763,355.843262 452.026184,350.936920 
	C454.930450,340.553345 457.271118,330.434662 458.726227,319.732727 
	C458.813507,319.099792 458.859650,318.849731 458.994965,318.232452 
	C459.624969,316.460175 459.724243,314.992920 459.703308,313.134277 
	C459.783295,311.502258 460.061188,310.276550 460.393921,308.676239 
	C460.681000,306.518097 460.632294,304.722168 460.629913,302.531494 
	C460.636261,301.328888 460.685303,300.524414 460.797943,299.308716 
	C460.968536,298.064453 461.183441,297.252686 461.453888,296.014404 
	C461.450287,285.549866 461.969330,275.506470 461.121704,265.050598 
	C460.800659,263.780243 460.703003,262.917236 460.585449,261.629761 
	C460.524048,258.745911 460.912750,256.263641 460.073792,253.441772 
	C459.616699,251.438568 459.670349,249.801086 459.566772,247.772095 
	C459.360260,245.779587 459.125397,244.197601 458.710663,242.233276 
	C456.685364,230.762375 454.188171,219.817474 450.887756,208.610809 
	C450.416199,206.387573 450.375671,204.561188 450.394745,202.737732 
	C450.695557,174.005219 448.138367,145.469833 444.490356,116.578979 
	C440.483765,86.782990 435.125824,57.778793 421.871155,30.865164 
	C420.251007,27.575474 418.388824,24.444754 415.881653,21.260010 
	C411.559540,14.378736 406.663269,8.643009 399.537628,5.138869 
	C398.094818,4.429353 396.423584,3.718795 396.783081,1.296475 
z"/>
<path fill="#000000" opacity="1.000000" stroke="none" 
	d="
M230.220612,512.650391 
	C155.038300,513.000000 80.076561,512.977417 5.114997,513.077942 
	C1.943148,513.082153 0.889531,512.779846 0.892234,509.118896 
	C1.016335,341.038177 1.016451,172.957382 0.891790,4.876672 
	C0.889068,1.206678 1.955797,0.910242 5.119588,0.920813 
	C42.100296,1.044378 79.081566,1.000000 116.531342,1.000000 
	C118.211197,3.166786 116.500565,4.135892 115.135887,4.894006 
	C100.312889,13.128594 93.095604,27.195749 87.161125,41.992981 
	C76.665627,68.162804 71.921776,95.727165 68.537491,123.548355 
	C66.589958,139.558517 65.225212,155.617249 64.272926,171.735016 
	C63.643482,182.388626 63.675900,193.013855 63.484848,203.653625 
	C63.439655,206.170273 63.113708,208.621399 62.366806,211.029648 
	C58.806622,222.508911 56.556793,234.275833 54.650726,246.544357 
	C54.342968,248.336792 54.387444,249.742157 54.135605,251.540466 
	C53.104137,254.646820 53.444210,257.443695 53.427826,260.638367 
	C53.446407,261.940704 53.319618,262.802155 53.108543,264.100098 
	C51.697502,274.627930 52.738934,284.763458 52.488338,295.306396 
	C52.782814,296.842773 53.007843,297.954712 53.259087,299.480988 
	C53.429440,302.278137 53.328033,304.670258 53.427467,307.443054 
	C53.499454,308.583191 53.729534,309.305695 53.953457,310.406433 
	C54.155346,311.492737 54.201248,312.224518 54.263557,313.316956 
	C54.326702,314.862000 54.228886,316.061127 54.754181,317.560425 
	C54.931046,318.154663 54.997391,318.396423 55.143539,319.010681 
	C56.778389,329.694641 58.608566,339.948120 61.778229,350.313477 
	C63.329750,357.140381 65.777023,363.277985 68.007065,369.873962 
	C70.292137,376.222473 72.548218,382.176300 75.779694,388.111511 
	C84.105667,407.274506 95.081001,424.342743 108.290131,440.020416 
	C112.028587,444.457489 115.850624,448.804504 120.369019,452.995361 
	C135.492676,469.194275 153.114136,481.450897 172.554321,491.850067 
	C173.302444,492.213562 173.728210,492.427246 174.483887,492.792358 
	C175.036667,493.044281 175.258652,493.146576 175.814575,493.406464 
	C186.702744,498.202881 197.141571,503.167389 209.033035,505.198608 
	C215.771790,508.193329 222.826218,508.290283 229.751984,510.499176 
	C230.401627,511.213104 230.519226,511.734772 230.220612,512.650391 
z"/>
<path fill="#F8F5FA" opacity="1.000000" stroke="none" 
	d="
M53.318733,247.619934 
	C54.627228,234.465622 57.670799,221.961548 61.157433,209.564926 
	C61.455704,208.504425 61.997517,207.507935 62.002846,206.342667 
	C62.061848,193.434540 61.873608,180.533401 62.937992,167.634094 
	C64.280029,151.369888 65.789398,135.145996 67.746216,118.930717 
	C69.670753,102.983070 72.370407,87.219589 76.129860,71.679893 
	C80.893135,51.990936 87.128891,32.671505 99.519592,16.229485 
	C103.272766,11.249153 107.731613,6.332047 114.036896,3.950135 
	C115.338509,3.458433 116.882729,3.099859 117.295479,1.302719 
	C124.687584,1.000000 132.375168,1.000000 140.531372,1.000000 
	C166.444962,10.864830 181.088699,31.899130 195.144806,53.494045 
	C197.953537,57.809196 200.734482,62.187096 202.915283,66.865295 
	C204.543747,70.358620 206.921478,71.219147 210.578888,70.417343 
	C228.045197,66.588295 245.741592,65.149071 263.609161,65.624779 
	C276.609528,65.970909 289.458191,67.546562 302.197937,70.116737 
	C308.463196,71.380722 308.552185,71.216217 311.628601,65.759079 
	C321.382263,48.457306 332.147308,31.871805 346.588013,18.010708 
	C354.088959,10.810816 362.344055,4.706312 372.712036,1.250715 
	C380.687592,1.000000 388.375153,1.000000 396.531372,1.000000 
	C395.887604,1.913625 396.989624,2.693926 397.443207,2.845025 
	C405.829773,5.638667 411.009094,12.166554 416.378204,18.989050 
	C416.098450,20.252995 416.561340,21.586042 415.628265,22.433439 
	C410.519714,27.072855 407.100006,33.668190 399.604034,35.932190 
	C395.781616,34.289207 393.895813,30.969870 391.253204,28.487276 
	C388.403168,25.809868 385.460663,25.023363 381.683044,26.109013 
	C376.389191,27.630402 372.047729,30.632780 368.112152,34.267857 
	C360.754974,41.063316 354.031494,48.439377 348.186768,57.031982 
	C346.267487,59.722233 344.611328,62.170883 342.895569,64.987885 
	C341.091705,67.434250 339.880951,69.852776 338.257202,72.411469 
	C337.410767,75.728760 332.854401,77.470299 335.367310,81.802917 
	C336.029999,84.699562 334.149384,86.087128 332.660553,87.580231 
	C313.620117,106.675293 294.550720,125.741539 275.463043,144.789383 
	C274.178009,146.071732 272.941254,147.493607 270.572632,147.599625 
	C269.038696,147.117630 268.389771,146.105621 267.427032,144.934631 
	C265.496094,142.620529 263.766876,140.591827 260.651550,139.869141 
	C251.394012,136.997955 242.962006,145.345596 245.907623,154.838928 
	C246.450638,157.390320 246.351837,159.664001 247.032379,162.204224 
	C247.612579,165.014633 248.276108,167.428543 248.563507,170.297211 
	C248.617996,170.922043 248.611404,171.174026 248.502975,171.790176 
	C245.079071,174.998489 242.690826,179.088959 237.554565,179.976776 
	C236.949310,179.883560 236.713318,179.818253 236.156067,179.579926 
	C233.690689,176.885834 232.324585,173.868073 230.346039,170.828796 
	C228.296417,167.634003 226.440018,164.728409 224.158997,161.692337 
	C221.988831,159.379181 220.566727,156.878540 218.285110,155.112030 
	C207.960373,147.118240 195.378387,149.916672 188.119019,162.153656 
	C187.081589,164.912506 186.380707,167.387711 186.396790,170.364746 
	C186.579117,173.510620 187.273727,176.179764 188.535187,179.053711 
	C190.663162,183.068787 193.737152,185.728012 197.362366,188.348267 
	C199.514084,190.203094 201.947678,191.303406 202.839172,194.316116 
	C201.600540,199.400970 201.235626,204.183258 201.410995,209.034180 
	C201.547424,212.807892 200.581650,216.279678 198.306229,219.356659 
	C196.396317,221.939362 195.395889,224.950073 194.347565,227.940994 
	C193.748108,229.651321 193.303574,231.493607 191.142456,232.594055 
	C189.614487,232.764923 188.739334,232.224792 187.685883,231.217621 
	C181.402527,224.211624 174.908752,217.995758 167.141388,212.642624 
	C147.795914,197.987366 126.152397,190.216217 102.559059,187.560776 
	C96.206772,186.845840 92.322563,190.450775 92.878792,196.441116 
	C95.063187,219.966141 102.879669,241.402634 117.112701,260.796570 
	C122.026718,268.518311 128.403839,274.398590 135.160294,280.408936 
	C139.382248,285.425995 144.528885,288.751740 149.553345,292.235870 
	C151.848419,293.827332 154.468475,295.017578 156.317810,297.717438 
	C157.061905,300.261505 156.001480,302.015717 154.621964,303.469299 
	C147.514099,310.958801 140.187973,318.234497 132.740601,325.386597 
	C131.888474,326.204956 130.843536,326.737823 129.254272,326.811035 
	C127.513870,326.525940 126.402893,325.752411 125.511658,324.762146 
	C117.974518,316.387543 108.211906,311.408081 98.304749,306.533203 
	C73.719124,294.435699 59.905682,273.992462 53.318733,247.619934 
z"/>
<path fill="#000000" opacity="1.000000" stroke="none" 
	d="
M372.531342,1.000000 
	C374.107147,3.757451 371.154541,3.491727 370.316498,3.802046 
	C357.168304,8.670609 347.820709,18.180132 338.823639,28.403902 
	C329.580963,38.906780 322.130798,50.566830 314.996094,62.493813 
	C314.744873,62.913754 314.301788,63.219185 314.052124,63.639709 
	C308.574707,72.864944 308.515045,73.151497 298.355652,70.922302 
	C280.382690,66.978630 262.172150,66.368324 243.952835,67.151184 
	C232.154678,67.658134 220.337494,69.265823 208.843292,72.150940 
	C204.931381,73.132843 203.685089,71.521507 202.304398,68.758644 
	C195.880096,55.902985 188.066406,43.859261 179.050323,32.755699 
	C168.866684,20.214273 157.785095,8.414736 141.796814,2.934938 
	C141.249466,2.747340 140.868713,2.073634 140.705154,1.313251 
	C218.020889,1.000000 295.041779,1.000000 372.531342,1.000000 
z"/>
<path fill="#E7D7F4" opacity="1.000000" stroke="none" 
	d="
M230.468536,513.000000 
	C230.564346,512.698730 230.645065,512.303894 230.091721,511.458221 
	C229.346817,508.143707 231.652649,506.482788 233.210709,504.798615 
	C241.109848,496.259857 249.885818,488.554474 257.273590,479.517822 
	C258.217499,478.363220 259.467743,477.472412 261.380676,477.139191 
	C261.988617,477.140167 262.230988,477.169342 262.820740,477.312317 
	C266.503845,480.115631 270.078064,482.492065 273.534729,485.544250 
	C273.374725,490.645569 269.566559,493.219818 266.827484,496.337616 
	C261.932434,501.909454 256.092590,506.606476 251.244080,512.737061 
	C244.312363,513.000000 237.624710,513.000000 230.468536,513.000000 
z"/>
<path fill="#E1D0EF" opacity="1.000000" stroke="none" 
	d="
M251.468658,513.000000 
	C250.633514,510.465057 252.436890,509.118805 253.922913,507.562683 
	C260.421417,500.757599 267.831635,494.780975 272.962952,486.350342 
	C276.327881,484.412292 278.856018,487.343903 282.250244,487.627808 
	C285.677124,488.614746 288.892242,488.328003 292.321960,489.195984 
	C295.163269,491.943054 293.731934,494.202911 291.956757,496.274994 
	C289.600830,499.024841 286.974640,501.535492 284.334320,504.008209 
	C281.768066,506.411591 279.682129,509.082031 278.244446,512.704224 
	C269.312439,513.000000 260.624878,513.000000 251.468658,513.000000 
z"/>
<path fill="#D9C7EA" opacity="1.000000" stroke="none" 
	d="
M278.428467,513.000000 
	C277.540131,509.988373 278.543793,507.664490 280.837311,505.581940 
	C284.246155,502.486694 287.380188,499.090118 290.661560,495.852570 
	C291.974579,494.557098 293.266357,493.291992 292.991333,490.867126 
	C295.493774,487.059814 299.394501,489.180237 302.906067,488.057556 
	C308.636597,487.409821 313.505585,485.085815 319.080688,484.027161 
	C322.794189,485.310822 321.422791,487.257446 320.139679,489.069763 
	C317.566956,492.703735 314.569366,495.978973 311.314728,499.009521 
	C309.011688,501.153992 307.035339,503.539093 305.249451,506.562073 
	C299.195679,509.237701 292.984650,509.863922 286.889893,510.960419 
	C285.600067,511.192413 284.237000,510.934998 283.706055,512.640503 
	C282.285645,513.000000 280.571289,513.000000 278.428467,513.000000 
z"/>
<path fill="#F1E4FA" opacity="1.000000" stroke="none" 
	d="
M451.825745,208.750168 
	C455.739838,217.460754 456.738190,226.644485 458.977020,235.506195 
	C459.444977,237.358337 459.654175,239.275848 459.908142,241.579620 
	C449.824677,252.638321 440.423126,263.943787 429.462646,273.570251 
	C419.323486,282.475403 414.378632,293.487823 412.092957,306.619873 
	C411.919647,307.200775 411.831024,307.426971 411.547791,307.960632 
	C403.270966,312.863861 395.332092,317.543640 388.759094,324.386719 
	C382.681183,330.714355 377.808197,337.700073 374.051392,345.953308 
	C372.488342,349.626343 371.058411,352.974670 370.066742,356.485931 
	C369.655060,357.943542 369.279816,359.482361 370.725403,360.587494 
	C372.176941,361.697266 373.594299,360.953339 374.848480,360.120789 
	C378.982819,357.376312 382.739655,354.096649 386.970856,351.488586 
	C389.060455,350.200592 391.005524,348.523804 394.015167,348.876160 
	C395.591248,351.344910 394.164856,353.199097 393.364807,355.153992 
	C391.100037,360.687744 387.313263,365.454559 385.226074,371.474335 
	C384.404907,373.943085 382.864014,375.397980 381.141174,376.701447 
	C375.695526,380.821533 371.739868,386.260590 367.712097,392.058655 
	C367.472687,393.530334 367.584351,394.695129 367.221680,396.167114 
	C346.510559,421.859222 321.648193,441.789673 292.148254,455.882050 
	C287.179321,458.255768 282.033356,460.182617 276.915497,462.182892 
	C274.882385,462.977570 272.770050,463.487366 270.225403,462.511414 
	C266.260956,458.496094 264.701965,453.829529 264.549133,448.689911 
	C264.410553,444.030060 264.340485,439.361664 264.714844,434.303558 
	C265.153534,432.159302 266.341827,431.022308 267.700592,430.014038 
	C274.416595,425.030273 279.840973,418.686340 285.699646,412.809479 
	C292.316406,406.172058 292.956238,398.222412 290.067993,389.351501 
	C288.469727,384.891479 285.256165,382.286102 281.602661,379.586121 
	C280.334045,378.489563 279.518768,377.516846 279.400299,375.759857 
	C281.222015,372.881348 281.062561,370.281555 280.601196,367.346191 
	C279.908630,362.939880 279.039856,358.240021 283.436218,354.715210 
	C286.487091,357.444977 286.177399,361.311951 288.314758,364.892181 
	C288.151245,350.830780 290.555725,337.337952 288.318817,323.788025 
	C286.983917,315.702209 287.390808,307.543488 287.424805,299.409241 
	C287.477600,286.777435 287.462555,274.172241 285.628815,261.614960 
	C284.428162,253.393127 284.206116,245.076324 284.381653,236.752975 
	C284.577637,227.460312 284.393860,218.168976 283.924194,208.447586 
	C286.048279,204.803207 289.012573,204.432693 292.751343,205.390533 
	C293.839630,206.402344 294.356812,207.356628 294.288757,208.336029 
	C293.694977,216.881866 296.324310,225.114380 296.641907,233.588867 
	C296.959259,242.056900 298.904175,250.364075 300.259735,258.715942 
	C300.789917,261.982605 301.345673,265.259216 301.975403,268.961151 
	C302.377289,271.437714 301.889832,273.397278 301.315796,275.764465 
	C298.508636,285.545135 294.982666,294.729034 295.421234,304.777588 
	C295.712952,311.460999 297.799652,313.887177 304.514404,313.434021 
	C313.637299,312.818359 322.605835,311.141907 331.622742,307.916382 
	C340.283875,305.991760 347.458099,301.621521 355.185333,297.622742 
	C363.300964,293.651703 370.142029,288.455475 376.982635,282.654785 
	C383.788208,275.983246 390.595337,269.786652 396.148926,261.950958 
	C397.541962,260.166992 398.872894,258.813080 400.722229,257.488220 
	C408.016113,254.565338 412.448486,248.788651 416.740875,243.208664 
	C423.754547,234.090942 431.556915,225.774475 439.992279,218.027756 
	C442.315277,215.894409 444.758240,213.942993 446.682892,211.397278 
	C447.861145,209.838760 449.131836,208.149017 451.825745,208.750168 
z"/>
<path fill="#F3E9FA" opacity="1.000000" stroke="none" 
	d="
M452.062195,208.494446 
	C450.663330,208.972534 449.632538,209.782394 448.722717,210.791000 
	C439.765167,220.721313 428.935883,228.910248 420.986725,239.720734 
	C416.831482,245.371628 412.079498,250.332977 407.230713,255.290375 
	C405.685913,256.869781 404.169098,258.372162 401.312042,257.998413 
	C400.148895,255.563385 401.784698,253.857483 402.854462,252.062546 
	C412.806152,235.364639 418.870087,217.384521 420.886322,198.041656 
	C421.696869,190.265793 418.160034,186.825104 410.443176,187.665710 
	C404.669556,188.294647 399.066315,190.163651 392.830444,189.844315 
	C389.921204,187.330780 391.606232,185.574051 393.400482,183.937637 
	C402.116425,175.988266 410.137695,167.336411 418.577881,159.108780 
	C420.366516,157.365173 422.101440,155.581146 423.380432,152.967545 
	C425.236359,150.394699 424.613647,147.862991 424.262573,145.457382 
	C423.616302,141.028625 423.429169,136.573441 423.233154,131.752319 
	C428.273132,126.151840 433.468292,121.170761 438.613586,116.141502 
	C440.448517,114.347946 442.579224,113.173035 445.543945,114.749832 
	C447.219269,126.097908 448.749084,137.182526 449.923218,148.304688 
	C450.437347,153.175064 450.347839,158.087067 450.858765,163.003891 
	C452.412720,177.958786 452.032166,193.009186 452.062195,208.494446 
z"/>
<path fill="#F6EEFA" opacity="1.000000" stroke="none" 
	d="
M445.909668,114.578499 
	C442.783997,114.550903 440.600006,115.817459 438.420441,117.962677 
	C433.967896,122.345047 430.089844,127.348930 424.517761,130.951691 
	C421.244720,128.206085 421.951843,124.246101 420.853180,120.428375 
	C420.526794,116.441063 420.241669,112.868652 419.551025,108.931778 
	C418.765045,104.297783 418.138245,100.043617 416.913330,95.499985 
	C416.606781,91.134102 415.586090,87.304680 414.665955,83.064087 
	C414.176361,79.685677 413.326172,76.796440 412.259644,73.577652 
	C411.637024,71.065582 411.053284,68.933792 409.967407,66.573318 
	C409.072968,63.851311 408.193329,61.511669 407.663574,58.683720 
	C405.733368,52.190811 403.225250,46.330784 400.304932,40.637394 
	C399.497498,39.063221 398.219360,37.641167 398.697113,35.348198 
	C400.455078,35.094139 401.821289,34.737503 402.963074,33.545181 
	C407.335358,28.979532 411.749207,24.453732 416.371399,19.575880 
	C429.323120,37.917793 435.061981,59.269157 439.943176,80.899536 
	C442.144623,90.654953 444.284790,100.456696 444.984497,110.480515 
	C445.076843,111.803497 446.500763,112.709038 445.909668,114.578499 
z"/>
<path fill="#EDDEF7" opacity="1.000000" stroke="none" 
	d="
M411.341064,307.281921 
	C412.948700,296.079681 415.317108,285.520569 424.065704,277.223480 
	C434.765106,267.076233 444.692169,256.115631 454.990387,245.542984 
	C456.246490,244.253448 457.295288,242.654663 459.500793,242.041351 
	C459.810455,243.583405 461.527618,244.723022 460.908020,246.839783 
	C457.365814,262.555847 450.503632,276.172546 440.033936,288.370667 
	C433.024139,295.610535 425.895294,302.094269 416.821655,306.001862 
	C415.164154,306.715698 413.632477,307.891754 411.341064,307.281921 
z"/>
<path fill="#CEBDE3" opacity="1.000000" stroke="none" 
	d="
M341.226868,492.813354 
	C337.476837,496.079071 332.870331,496.896667 328.508331,499.018677 
	C327.946381,499.177063 327.756256,499.309937 327.289429,499.653625 
	C326.574890,499.915649 326.137085,499.966827 325.372192,500.074463 
	C322.833252,497.489655 324.437653,495.347778 326.235748,493.615479 
	C330.680237,489.333588 334.352966,484.363159 338.700287,480.006683 
	C352.913788,465.763275 366.699188,451.110535 380.482269,436.453888 
	C383.204987,433.558655 386.520477,431.195129 388.286316,427.048492 
	C390.843903,424.024445 394.239136,422.970795 397.332825,421.509583 
	C402.417694,419.107880 405.085052,415.550598 404.029297,409.391052 
	C408.241211,401.972687 414.378876,396.596588 420.142883,390.430786 
	C423.612640,389.462250 426.598694,390.661774 430.007874,391.057678 
	C432.889832,393.043182 431.781647,395.059174 430.314667,396.718475 
	C427.892761,399.458038 425.821350,402.515961 423.180817,405.037598 
	C410.677643,416.977722 399.215454,429.924255 387.161499,442.298523 
	C372.796936,457.044952 358.869263,472.221497 344.422791,486.897125 
	C342.870178,488.474365 341.744293,490.275360 341.226868,492.813354 
z"/>
<path fill="#D2C1E5" opacity="1.000000" stroke="none" 
	d="
M388.686035,426.940674 
	C389.406342,430.261200 386.997467,432.298981 385.249603,433.817322 
	C379.837097,438.519012 375.503876,444.192719 370.443695,449.198792 
	C359.104431,460.416870 348.010162,471.892883 337.112793,483.541382 
	C333.607269,487.288544 330.329041,491.268707 326.632111,494.848358 
	C325.312988,496.125641 324.853394,497.598145 325.033539,499.741028 
	C319.036407,503.572418 312.300415,504.971588 305.389465,506.911682 
	C304.611786,504.281555 305.861359,502.529510 307.615845,500.830994 
	C311.732605,496.845581 315.912170,492.903381 319.283447,488.220764 
	C319.909607,487.351013 321.232330,486.773346 320.167938,485.151917 
	C319.740540,482.988159 321.406006,482.526581 322.628571,481.822388 
	C331.896301,476.484192 339.376129,469.372253 345.013641,460.220795 
	C354.745911,444.422180 369.311340,434.507446 385.945099,427.210602 
	C386.715607,426.872589 387.522095,426.688721 388.686035,426.940674 
z"/>
<path fill="#C8B8DF" opacity="1.000000" stroke="none" 
	d="
M430.424866,405.738770 
	C412.346649,438.599487 387.776917,465.295471 355.467224,485.024109 
	C353.197388,483.164185 353.013855,482.520477 354.858490,480.232880 
	C357.256134,477.259491 359.607513,474.199341 362.303497,471.513245 
	C382.803253,451.088654 402.035278,429.440582 422.633392,409.115204 
	C424.676788,407.098846 426.468933,404.216034 430.424866,405.738770 
z"/>
<path fill="#CBBAE1" opacity="1.000000" stroke="none" 
	d="
M430.886719,405.688660 
	C428.297485,405.654175 426.630585,406.778717 425.025726,408.432556 
	C411.617920,422.249298 397.738922,435.637299 384.853851,449.922943 
	C375.854309,459.900726 365.592316,468.658508 357.242432,479.224701 
	C355.941223,480.871277 354.032532,482.144379 354.850403,484.857788 
	C351.901764,488.241730 347.601318,489.667664 343.509216,492.030579 
	C342.955109,492.178223 342.762848,492.308960 342.292175,492.649658 
	C342.013733,492.859589 341.539307,493.012360 341.296570,493.068970 
	C339.206482,490.014313 341.433380,488.179688 343.250275,486.263336 
	C349.539673,479.629364 356.058594,473.231689 362.244843,466.477570 
	C374.151764,453.477661 386.812225,441.171173 399.015381,428.438324 
	C409.360748,417.643982 419.498993,406.651215 429.740448,395.757141 
	C430.453613,394.998535 430.961212,394.187592 430.988251,392.785919 
	C432.750122,389.845886 435.313599,388.800629 438.580627,388.936737 
	C437.073730,395.019836 433.877502,400.102020 430.886719,405.688660 
z"/>
<path fill="#F84C2E" opacity="1.000000" stroke="none" 
	d="
M461.685059,308.663330 
	C461.548737,310.150299 461.259460,311.307800 460.906921,312.830322 
	C460.142578,314.552185 460.689240,316.038239 460.227417,317.752289 
	C460.050415,318.066376 460.014954,318.004211 460.050415,318.008911 
	C458.098053,323.938721 454.923401,329.057037 449.625000,333.160400 
	C443.366974,338.124329 436.454407,340.044373 428.591583,340.295654 
	C427.685852,340.192383 427.189178,340.054443 426.387878,339.648468 
	C424.366760,336.903992 426.484283,335.404144 427.751251,333.822540 
	C434.728973,325.112122 441.787231,316.475677 447.573517,306.878479 
	C449.644348,303.443756 451.710602,300.039001 453.304016,295.937927 
	C455.600525,293.248474 457.757904,290.966431 461.691650,291.503113 
	C462.883118,293.105347 462.292542,294.685883 462.679413,296.524841 
	C462.576080,297.399689 462.326385,297.923767 461.956757,298.736908 
	C461.313324,299.903320 461.541870,300.874908 461.487854,302.171082 
	C461.508942,304.465271 461.441193,306.400146 461.685059,308.663330 
z"/>
<path fill="#F25437" opacity="1.000000" stroke="none" 
	d="
M462.147430,291.613708 
	C458.751282,291.858154 456.945221,294.305389 454.302429,295.850037 
	C449.347351,298.367401 444.122284,297.633514 438.833618,298.630707 
	C435.552948,295.201019 438.496765,291.952789 438.780182,288.327545 
	C449.073456,276.106934 455.345306,262.214020 460.573883,247.432373 
	C460.890625,248.853455 460.943726,250.473083 461.017731,252.503220 
	C462.014252,255.270660 461.205872,257.749176 461.673218,260.532410 
	C461.878357,261.672333 461.942169,262.430267 462.046082,263.567841 
	C462.941803,273.024902 462.330139,282.120117 462.147430,291.613708 
z"/>
<path fill="#FA3D23" opacity="1.000000" stroke="none" 
	d="
M452.624634,351.061707 
	C453.046661,356.355255 450.250916,360.578949 448.912476,365.615692 
	C436.704376,373.135010 424.849121,380.678772 413.572083,389.769684 
	C408.626434,390.581055 404.019379,391.086914 398.986145,391.375732 
	C398.045227,391.287628 397.524780,391.173157 396.672882,390.818054 
	C393.995392,386.992432 397.394836,385.964996 399.332733,384.635986 
	C411.136658,376.540833 422.868347,368.337067 434.864777,360.524780 
	C437.237518,358.979614 439.611603,357.423309 441.493652,354.735291 
	C445.102386,352.728516 448.370605,350.766876 452.624634,351.061707 
z"/>
<path fill="#F9361F" opacity="1.000000" stroke="none" 
	d="
M414.010559,389.597015 
	C413.966095,386.047577 416.905273,385.282501 418.741272,383.980255 
	C426.822632,378.248199 435.144073,372.854095 443.394775,367.361938 
	C444.794067,366.430511 446.337555,365.842590 448.454285,365.997681 
	C449.009125,366.358093 448.929779,366.651337 448.360352,366.956726 
	C447.963684,367.161255 447.801910,367.284546 447.738464,367.696655 
	C447.873169,368.159607 447.909546,368.333740 447.888245,368.768341 
	C447.701324,369.203339 447.572113,369.377838 447.246460,369.812164 
	C447.050049,370.071991 447.017273,369.997253 447.048523,370.023499 
	C446.928741,370.176971 446.777740,370.304169 446.730713,370.708679 
	C444.669067,377.022766 442.959778,383.261597 438.947296,388.889709 
	C436.449646,390.220306 434.069153,391.193573 431.343536,392.307678 
	C427.517853,392.581757 424.239990,391.523071 420.498108,390.718658 
	C417.965729,391.424347 415.904388,391.698944 414.010559,389.597015 
z"/>
<path fill="#D9C7EA" opacity="1.000000" stroke="none" 
	d="
M453.270630,351.088989 
	C449.509155,352.511078 446.102295,353.715057 442.349915,355.062744 
	C438.884979,357.838989 435.256805,358.541504 430.940186,357.891510 
	C428.228088,355.879303 429.924561,354.224213 430.960327,352.669403 
	C434.178558,347.838684 438.698639,344.190796 442.651062,340.025848 
	C444.789490,337.772430 447.272400,335.800049 448.770081,332.544495 
	C453.522552,328.271545 456.883514,323.444489 459.719116,317.992004 
	C459.525208,327.809540 457.191315,337.282379 454.576172,346.671448 
	C454.186584,348.070282 454.444489,349.601074 453.270630,351.088989 
z"/>
<path fill="#F07E72" opacity="1.000000" stroke="none" 
	d="
M461.906464,292.391785 
	C461.923340,282.975861 461.969177,273.931152 462.050598,264.416962 
	C463.873077,265.166199 462.955261,266.996429 462.968933,268.509094 
	C463.051514,277.661926 462.985321,286.816132 462.897278,296.422729 
	C461.522003,295.722687 462.127106,294.156586 461.906464,292.391785 
z"/>
<path fill="#F07E72" opacity="1.000000" stroke="none" 
	d="
M461.877808,260.491272 
	C460.342468,258.670410 461.294800,256.147186 461.015137,253.341156 
	C462.993744,255.089859 461.580383,257.690887 461.877808,260.491272 
z"/>
<path fill="#F07E72" opacity="1.000000" stroke="none" 
	d="
M461.911621,308.561584 
	C460.225983,307.137512 461.305298,304.935547 461.049744,302.497589 
	C461.164612,301.897339 461.283539,301.704529 461.616455,301.775696 
	C461.882050,304.069885 461.933624,306.100128 461.911621,308.561584 
z"/>
<path fill="#D9C7EA" opacity="1.000000" stroke="none" 
	d="
M460.416565,317.938751 
	C459.065033,316.548096 460.308044,315.160553 460.575134,313.447662 
	C460.823334,314.733917 460.803009,316.272522 460.416565,317.938751 
z"/>
<path fill="#F25437" opacity="1.000000" stroke="none" 
	d="
M461.908203,301.667053 
	C461.830475,302.039673 461.436676,302.049072 461.241150,302.069641 
	C461.154572,301.224274 461.263550,300.358368 461.604675,299.259216 
	C461.886536,299.782104 461.936249,300.538239 461.908203,301.667053 
z"/>
<path fill="#D2C1E5" opacity="1.000000" stroke="none" 
	d="
M327.285675,499.903870 
	C327.155762,499.562012 327.377716,499.337616 327.907532,499.117737 
	C327.943848,499.343903 327.751251,499.643585 327.285675,499.903870 
z"/>
<path fill="#FA3D23" opacity="1.000000" stroke="none" 
	d="
M447.291504,369.992157 
	C447.100220,369.764313 447.236084,369.500854 447.644104,369.155243 
	C447.731384,369.323334 447.632172,369.617828 447.291504,369.992157 
z"/>
<path fill="#CEBDE3" opacity="1.000000" stroke="none" 
	d="
M342.285065,492.896790 
	C342.160217,492.558167 342.384735,492.335419 342.917328,492.119415 
	C342.950348,492.342987 342.753387,492.638519 342.285065,492.896790 
z"/>
<path fill="#FA3D23" opacity="1.000000" stroke="none" 
	d="
M447.916931,367.751038 
	C447.723297,367.784851 447.592346,367.590790 447.511658,367.377747 
	C447.496185,367.336853 447.678314,367.221161 447.947388,367.088989 
	C448.125488,367.037933 447.997101,367.516571 447.916931,367.751038 
z"/>
<path fill="#FA3D23" opacity="1.000000" stroke="none" 
	d="
M446.911804,370.756104 
	C446.714111,370.792633 446.576508,370.606506 446.487610,370.399475 
	C446.470490,370.359619 446.644409,370.237701 446.904968,370.101715 
	C447.079773,370.049774 446.988861,370.526154 446.911804,370.756104 
z"/>
<path fill="#F5ECFA" opacity="1.000000" stroke="none" 
	d="
M128.918213,326.306702 
	C130.772934,326.000641 131.717422,324.775879 132.760803,323.733948 
	C139.425308,317.078705 146.067322,310.400909 152.754959,303.769104 
	C154.194626,302.341431 155.332779,300.775452 156.308075,298.305115 
	C161.111343,298.293457 164.559387,301.103119 168.472504,302.813324 
	C171.963348,304.338959 175.403458,305.969543 179.500458,306.974854 
	C189.770844,310.567017 199.967789,312.772430 210.696335,314.406006 
	C213.180557,319.553497 211.478989,324.425751 210.716293,329.282684 
	C209.034256,339.993805 206.194199,350.379059 201.979645,360.403198 
	C200.417191,364.119476 200.199463,368.196320 200.441452,372.220917 
	C200.713272,376.741730 199.657974,380.832428 196.785919,384.361633 
	C193.351227,388.582184 191.840790,393.355194 192.426315,398.771118 
	C193.362213,407.427948 190.318771,414.326538 183.665390,419.942017 
	C178.712830,424.122040 174.797501,429.439758 169.180176,433.484924 
	C166.390060,434.312164 164.774872,432.870178 163.135864,431.461182 
	C160.017242,428.780334 156.772949,426.267059 152.932007,423.944824 
	C144.201324,418.602722 135.185013,414.596436 126.134903,409.889648 
	C124.363785,408.943512 123.039688,407.928223 121.504387,407.284607 
	C117.002045,405.397125 112.818352,406.439972 111.060600,409.885681 
	C109.243156,413.448425 110.572212,417.067932 115.034561,419.985291 
	C122.048210,424.149780 128.711655,428.199219 135.995590,431.101776 
	C137.674103,431.770599 139.347107,432.595856 140.619781,434.510864 
	C141.378311,437.045532 140.421707,438.757690 139.008270,440.252380 
	C134.911301,444.584930 130.680038,448.786499 126.371613,452.908112 
	C124.742966,454.466156 122.912338,455.527069 120.219208,454.239532 
	C106.181465,441.426941 95.433418,426.524017 85.898674,410.621643 
	C81.847084,403.864288 78.403580,396.832489 75.088928,389.383057 
	C75.430611,388.809937 75.790939,388.486176 76.002640,388.581635 
	C84.274918,392.310791 92.343163,389.328522 100.866768,387.797119 
	C108.359428,387.296356 115.311119,388.412415 122.646927,389.554993 
	C128.922638,391.255798 134.774353,393.048676 140.680283,394.650940 
	C142.268234,395.081726 144.013214,395.812256 145.344376,394.343567 
	C146.946976,392.575409 145.620972,390.975006 144.444595,389.157715 
	C139.471634,382.374664 133.592514,377.015564 127.178627,372.195923 
	C125.855499,371.201721 124.457069,370.256104 123.535950,368.391174 
	C124.861603,363.325653 129.143066,360.991577 132.462784,357.447754 
	C134.593948,356.923401 135.873718,357.977936 137.250931,358.853729 
	C138.964523,359.943481 140.671753,362.084106 142.857941,360.449371 
	C144.932449,358.898132 143.603790,356.562988 143.147293,354.209839 
	C140.245621,345.621429 136.404465,337.917877 131.115738,330.958374 
	C130.120544,329.648773 128.962372,328.391357 128.918213,326.306702 
z"/>
<path fill="#FF7045" opacity="1.000000" stroke="none" 
	d="
M128.781647,325.821045 
	C135.480515,334.283905 140.909271,343.123932 144.047562,353.605408 
	C141.356339,356.013153 139.321075,353.951569 137.294418,352.735321 
	C119.873993,342.280762 102.733482,331.368073 85.353905,320.848267 
	C74.962822,314.558533 65.008675,307.527405 53.730766,302.001129 
	C53.015488,301.512329 52.701992,301.137299 52.307228,300.362976 
	C51.827091,299.223846 51.505615,298.419403 51.164524,297.280212 
	C51.998562,286.216583 51.230614,275.466797 51.751717,264.296753 
	C51.963036,263.146545 51.982327,262.430695 52.066750,261.362671 
	C52.985226,258.229340 52.231438,255.363235 52.775654,252.176544 
	C52.972424,250.536057 52.972477,249.274353 53.062870,247.653595 
	C54.901886,249.030243 55.134724,251.439972 55.875870,253.599411 
	C64.333397,278.241943 78.871452,297.442749 103.622459,307.782959 
	C113.235840,311.799133 121.429688,317.990204 128.781647,325.821045 
z"/>
<path fill="#F3E9FA" opacity="1.000000" stroke="none" 
	d="
M120.010765,454.357697 
	C120.864624,453.987427 122.183311,454.323669 122.772682,453.814941 
	C129.127472,448.329773 136.025513,443.330353 140.027451,435.225525 
	C140.244675,434.717438 140.446304,434.583374 141.007599,434.400391 
	C145.767883,435.398590 149.009842,438.431763 152.199875,441.247650 
	C157.300278,445.749786 162.368698,450.364227 166.470352,456.332764 
	C171.644470,464.746582 177.221848,472.340149 185.517975,478.021240 
	C186.271500,478.827637 186.578888,479.471588 186.642029,480.582275 
	C186.106125,482.940979 184.951965,484.606659 183.314041,485.704590 
	C180.101898,487.857758 177.882797,490.862427 175.298950,494.000092 
	C174.794434,494.078003 174.629944,494.036316 174.224182,493.913452 
	C173.799011,493.701782 173.615082,493.571289 173.158005,493.241241 
	C162.695190,488.896942 153.792755,482.527496 144.905075,476.270844 
	C135.937653,469.958130 127.612022,462.767090 120.010765,454.357697 
z"/>
<path fill="#F7F0F8" opacity="1.000000" stroke="none" 
	d="
M133.182922,357.575287 
	C130.150894,361.158630 127.182899,364.362335 124.076996,367.882507 
	C121.758179,369.358459 120.173439,367.817566 118.440926,366.975647 
	C112.012131,363.851715 105.435875,361.185425 97.842545,360.404633 
	C90.078568,359.424713 82.659927,358.871979 74.959747,357.376770 
	C70.076355,355.876190 65.367691,354.975006 61.318748,351.590515 
	C57.337601,343.790314 56.713467,335.488617 55.118988,327.467163 
	C54.565063,324.680511 53.295490,321.861389 53.917778,318.430481 
	C56.608223,317.450684 57.129379,319.821167 58.039387,321.410767 
	C64.546982,332.778381 74.470184,337.837708 87.369270,337.620331 
	C90.683426,337.564453 94.029083,337.377167 97.640930,338.498810 
	C110.383728,340.785400 120.740738,347.265869 130.925964,354.098419 
	C132.032974,354.841064 132.952682,355.804626 133.182922,357.575287 
z"/>
<path fill="#FE683F" opacity="1.000000" stroke="none" 
	d="
M133.458496,358.016907 
	C122.980507,349.433868 111.644829,343.197906 98.372070,339.813660 
	C92.913094,334.548340 86.407143,331.471283 80.401474,327.704010 
	C71.573753,322.166504 62.748238,316.611633 53.397968,311.257996 
	C52.796146,310.513794 52.453079,310.015289 52.124214,309.210632 
	C52.957352,306.541656 52.253948,304.086884 52.788750,301.350616 
	C56.398430,300.983917 58.854290,303.068298 61.536175,304.720001 
	C87.256493,320.560272 113.000198,336.362579 138.728638,352.189697 
	C140.155197,353.067261 141.537155,353.989258 143.676254,353.984009 
	C145.454559,355.271545 144.838837,357.092957 145.305389,358.618988 
	C145.812408,360.277405 145.449249,361.341431 143.840363,362.095276 
	C142.486725,362.729492 141.274628,363.542145 139.770203,362.390717 
	C137.821136,360.899048 135.792496,359.511414 133.458496,358.016907 
z"/>
<path fill="#FB4B2C" opacity="1.000000" stroke="none" 
	d="
M61.021969,351.675293 
	C65.185028,352.683624 69.301155,354.081116 73.710083,355.697205 
	C86.162415,364.952850 99.578362,372.005615 112.309700,380.140198 
	C115.249023,382.018311 118.196136,383.890900 121.160400,385.733368 
	C122.976158,386.861908 124.951889,388.028290 124.243454,391.028198 
	C116.661682,390.447113 109.361237,388.996063 101.455528,389.197327 
	C92.175255,382.681396 82.517052,377.541840 73.370026,371.596069 
	C71.621857,370.459686 69.854324,369.701141 67.516373,370.995728 
	C64.683456,364.796814 62.305408,358.602356 61.021969,351.675293 
z"/>
<path fill="#EDDEF7" opacity="1.000000" stroke="none" 
	d="
M262.000061,477.697479 
	C259.895111,478.054688 258.800934,479.468048 257.831757,480.727539 
	C249.546158,491.495026 238.362640,499.569000 230.101212,510.794769 
	C222.883163,510.667755 216.007431,509.246155 208.932495,506.925903 
	C208.395233,502.915649 211.760284,501.275177 213.965134,499.155792 
	C216.830383,496.401581 219.330490,493.479523 221.642517,489.839661 
	C226.617523,487.991333 231.723663,488.141083 236.345718,486.200867 
	C242.210541,483.738983 247.372040,480.318268 251.912720,475.791534 
	C255.982758,471.733917 258.768433,472.324799 262.000061,477.697479 
z"/>
<path fill="#F1E4FA" opacity="1.000000" stroke="none" 
	d="
M221.800171,490.035889 
	C221.832687,493.856598 219.338516,496.152527 217.161362,497.989868 
	C214.177887,500.507568 211.893478,503.644867 208.743469,506.465363 
	C196.934128,504.299866 186.127960,499.462708 175.112137,494.450623 
	C176.161789,487.633575 182.939056,485.850128 186.388947,480.794128 
	C188.925888,479.697327 190.521774,481.168762 192.243622,482.043030 
	C199.399506,485.676605 206.898727,488.093658 215.370148,488.572571 
	C217.801468,488.503876 219.831909,488.377350 221.800171,490.035889 
z"/>
<path fill="#FE633C" opacity="1.000000" stroke="none" 
	d="
M53.063938,311.373596 
	C58.879463,311.627808 62.947540,315.621826 67.583916,318.364990 
	C76.840576,323.841797 85.872009,329.699158 95.000450,335.392944 
	C96.396973,336.264038 98.049065,336.906616 97.988159,339.334381 
	C95.186516,339.468719 92.358604,338.944031 89.566422,339.092285 
	C73.038460,339.969666 61.442200,332.871490 54.224121,317.932617 
	C53.851955,317.995117 53.937572,317.979492 53.939743,318.022949 
	C53.215313,316.982300 53.658634,315.734314 53.301735,314.252838 
	C53.096336,313.197266 53.042500,312.466064 53.063938,311.373596 
z"/>
<path fill="#FA4126" opacity="1.000000" stroke="none" 
	d="
M67.209579,371.327087 
	C68.256920,368.492676 69.272026,367.460541 72.225571,369.404602 
	C80.367889,374.764099 88.855583,379.596252 97.119453,384.776123 
	C98.566254,385.682953 100.606812,386.219391 100.972839,388.762451 
	C96.668640,390.088684 92.331505,391.076721 87.984795,392.020630 
	C83.491577,392.996338 79.499252,391.808228 75.521362,389.063477 
	C71.236084,383.831635 69.710846,377.551117 67.209579,371.327087 
z"/>
<path fill="#F07E72" opacity="1.000000" stroke="none" 
	d="
M51.562675,264.089050 
	C51.860943,274.686005 51.778137,285.509674 51.420120,296.639404 
	C51.157139,286.068909 51.169369,275.192352 51.562675,264.089050 
z"/>
<path fill="#F07E72" opacity="1.000000" stroke="none" 
	d="
M52.908924,300.805359 
	C52.902462,303.458588 52.801224,305.909821 52.419197,308.632782 
	C52.095749,306.239868 52.053089,303.575287 52.079498,300.469482 
	C52.432903,300.147736 52.654762,300.339447 52.908924,300.805359 
z"/>
<path fill="#F07E72" opacity="1.000000" stroke="none" 
	d="
M52.595154,252.016174 
	C52.866291,254.660507 52.760204,257.523254 52.392998,260.698242 
	C52.160561,258.085205 52.189243,255.159897 52.595154,252.016174 
z"/>
<path fill="#F7F0F8" opacity="1.000000" stroke="none" 
	d="
M53.105232,314.317749 
	C54.184414,314.888763 54.179691,316.231201 54.197605,317.768860 
	C52.241508,317.315735 53.257591,315.852142 53.105232,314.317749 
z"/>
<path fill="#F1E4FA" opacity="1.000000" stroke="none" 
	d="
M172.970169,493.298492 
	C173.205734,493.086792 173.481293,493.223358 173.847229,493.641846 
	C173.673782,493.739960 173.364639,493.647644 172.970169,493.298492 
z"/>
<path fill="#F6F0FA" opacity="1.000000" stroke="none" 
	d="
M269.667694,147.296387 
	C271.431091,147.027451 272.388489,146.114624 273.342194,145.160446 
	C293.424225,125.068489 313.514038,104.984261 333.580872,84.877075 
	C334.143982,84.312828 334.470947,83.512886 334.951355,82.489166 
	C336.731445,80.554268 338.251556,81.986603 340.176239,82.646706 
	C349.076660,87.166595 357.775238,91.285431 366.245422,96.583969 
	C372.503265,100.104584 377.808990,104.418846 383.895294,108.215286 
	C385.283722,109.085205 386.083160,110.010323 386.700989,111.536446 
	C387.055847,114.863251 385.319489,116.909966 383.440399,118.801201 
	C367.436615,134.908661 351.368988,150.952545 335.278168,166.973022 
	C333.652222,168.591812 332.012543,170.427094 328.965454,169.327942 
	C327.285278,167.080994 327.239746,164.529495 325.924164,162.087631 
	C316.844849,147.121338 301.295807,146.711594 290.269440,161.119293 
	C287.927887,164.100143 286.124451,167.028915 284.060211,170.193619 
	C282.248779,173.205536 280.425720,175.813950 278.925964,179.009552 
	C277.464844,181.769638 276.190308,184.237457 274.925476,187.103592 
	C273.555725,189.741379 272.724426,192.195740 272.130280,195.113876 
	C271.729370,196.747620 271.211365,197.973312 270.937988,199.265274 
	C269.933105,204.013992 271.362213,206.338104 276.098206,207.614014 
	C277.212860,207.914291 278.369507,208.062225 279.522949,209.172516 
	C281.220612,214.170486 279.184784,218.586182 278.715302,223.108765 
	C277.985657,230.138016 277.226807,237.166870 276.149445,244.564606 
	C267.639496,257.624756 255.736572,267.033112 245.333328,277.835846 
	C243.734024,279.496552 241.654968,280.944916 239.147949,278.213623 
	C238.375473,276.064117 238.392395,274.223145 238.414612,272.395325 
	C238.615234,255.880615 237.011688,239.496368 234.870453,223.151535 
	C234.675110,221.660324 234.583817,220.170822 234.538071,218.234711 
	C234.107605,215.275620 233.272324,212.783722 234.133301,209.812256 
	C234.927750,208.325363 236.061325,208.082275 237.183640,207.760895 
	C243.142807,206.054520 244.026535,204.560349 242.706650,198.508789 
	C242.530594,197.701523 242.310562,196.904297 241.993652,195.756866 
	C241.330826,192.787659 239.943848,190.456863 239.113327,187.543503 
	C238.314331,184.633621 235.615997,182.729202 236.704041,179.343292 
	C239.863098,179.401367 241.218353,177.059021 243.058624,175.480118 
	C244.420441,174.311691 245.944916,173.332825 247.709503,172.134949 
	C250.116272,172.677109 250.529648,174.742325 251.744095,176.597900 
	C252.397949,177.771927 252.774704,178.701157 253.365219,179.499573 
	C255.944992,182.987564 258.085297,182.979996 260.744141,179.409348 
	C262.438568,177.133881 263.682556,174.568161 264.306580,171.828827 
	C265.114075,168.284119 266.360565,164.855911 267.047607,160.909393 
	C267.691467,157.819656 267.700317,154.994141 268.514526,151.906158 
	C268.523010,150.141220 268.706177,148.812729 269.667694,147.296387 
z"/>
<path fill="#534854" opacity="1.000000" stroke="none" 
	d="
M116.941544,262.296326 
	C102.689690,244.055328 94.993042,223.474365 91.990196,201.003677 
	C91.836197,199.851288 91.797325,198.683945 91.662209,197.528549 
	C90.733688,189.588730 94.695343,185.394257 102.521225,186.209991 
	C124.213753,188.471069 144.265244,195.383331 162.438675,207.543182 
	C164.232025,208.743134 165.981918,210.008041 167.913116,211.535706 
	C168.728165,213.478195 167.457382,214.239746 166.525208,215.135864 
	C151.640182,229.444824 136.930984,243.925735 122.999382,259.179077 
	C121.490158,260.831451 120.088959,262.986389 116.941544,262.296326 
z"/>
<path fill="#4C404D" opacity="1.000000" stroke="none" 
	d="
M116.754692,262.445984 
	C121.750343,260.876007 124.146172,256.250183 127.283768,252.863449 
	C140.258972,238.857758 153.755966,225.402893 167.924347,212.142502 
	C175.426178,216.770813 181.756653,222.851242 187.765472,229.720490 
	C182.353012,236.474396 176.034790,242.130188 170.092270,248.152481 
	C160.168533,258.209473 150.149612,268.172974 140.116470,278.121063 
	C138.640854,279.584198 137.427032,281.636688 134.502258,281.486084 
	C127.526024,276.087311 121.954994,269.659393 116.754692,262.445984 
z"/>
<path fill="#463947" opacity="1.000000" stroke="none" 
	d="
M134.343506,281.823975 
	C135.792755,280.171875 137.548660,278.910309 139.060883,277.404114 
	C153.733704,262.789856 168.357513,248.126358 183.023712,233.505402 
	C184.290634,232.242416 185.302277,230.615280 187.535004,230.071442 
	C188.461243,230.570816 189.052597,231.107086 189.905716,231.795685 
	C196.246185,236.847183 200.779297,242.863754 203.343674,250.612274 
	C194.808502,257.481567 187.848541,265.582520 180.284149,273.043365 
	C172.237228,280.980133 164.027008,288.766388 156.222748,297.417786 
	C155.915405,297.588898 156.056458,297.852203 156.049957,298.001404 
	C148.633102,293.124420 141.043030,288.339081 134.343506,281.823975 
z"/>
<path fill="#FF7045" opacity="1.000000" stroke="none" 
	d="
M104.728836,60.231812 
	C107.732628,49.108131 111.905388,38.789879 119.174751,30.065550 
	C124.851730,23.252321 129.073761,22.522085 137.141342,26.661654 
	C145.155121,30.773600 151.391754,37.053539 157.093567,43.820393 
	C161.269669,48.776524 164.964340,54.138287 168.959229,59.652874 
	C167.042511,62.523643 164.131241,62.595505 161.329834,62.619709 
	C144.897232,62.761711 128.463776,62.733467 112.030830,62.639606 
	C109.535568,62.625359 107.022667,62.466782 104.728836,60.231812 
z"/>
<path fill="#FF7045" opacity="1.000000" stroke="none" 
	d="
M398.622772,34.845703 
	C402.692993,42.232342 406.283630,49.525951 408.856384,57.641373 
	C406.999603,59.840130 404.602173,59.656212 402.310059,59.663544 
	C386.585388,59.713837 370.860504,59.720032 355.135834,59.661716 
	C352.502686,59.651955 349.789795,59.760162 347.321472,57.414658 
	C353.707214,46.568958 361.643677,37.267113 371.607666,29.804152 
	C372.801056,28.910328 374.067841,28.094967 375.371582,27.371096 
	C384.709167,22.186575 389.279785,23.091507 396.004272,31.436281 
	C396.837128,32.469810 397.570435,33.583549 398.622772,34.845703 
z"/>
<path fill="#F5EEF9" opacity="1.000000" stroke="none" 
	d="
M202.913208,251.396606 
	C199.861938,244.100403 194.932419,238.451965 190.204590,232.292999 
	C192.005630,231.875854 192.014908,230.293442 192.426773,229.117813 
	C193.954819,224.756149 195.332703,220.417572 198.395996,216.691910 
	C200.156097,214.551224 200.089676,211.449112 200.034882,208.575851 
	C199.944000,203.810165 199.397751,198.944992 202.036530,194.131241 
	C204.937851,192.737762 206.580856,195.299850 209.184052,196.184174 
	C213.370224,199.355820 218.487732,200.389709 221.924042,204.662048 
	C222.767807,207.998123 222.924194,211.045242 222.138168,213.906143 
	C220.668549,219.255127 221.016403,224.726303 220.420731,230.119507 
	C219.225571,240.940628 217.144928,251.655090 217.026901,262.605682 
	C217.000961,265.013550 216.216599,267.532593 213.651855,269.347015 
	C212.162399,269.620300 211.121292,269.230774 210.724777,268.291412 
	C208.350708,262.667389 203.992081,257.990936 202.913208,251.396606 
z"/>
<path fill="#FD5C37" opacity="1.000000" stroke="none" 
	d="
M176.290894,71.787415 
	C182.152985,80.331039 182.153259,80.331665 173.269791,84.267891 
	C171.180496,85.193657 169.088669,86.113708 166.642960,87.081055 
	C146.271805,86.222054 126.244049,86.905121 106.223114,86.674683 
	C103.595375,86.644432 100.899109,86.978333 98.099808,85.274323 
	C98.581947,81.107574 99.406532,77.289581 100.439545,73.169922 
	C102.494614,71.534027 104.623184,71.334618 106.804398,71.323380 
	C129.172668,71.208145 151.541641,71.452072 173.909698,71.199127 
	C174.573959,71.191612 175.224106,71.351585 176.290894,71.787415 
z"/>
<path fill="#FE653D" opacity="1.000000" stroke="none" 
	d="
M176.642914,71.702072 
	C174.801651,72.491875 172.936340,73.044456 170.886902,73.037544 
	C147.803314,72.959663 124.719467,72.963051 101.141830,72.906433 
	C101.365181,68.604492 102.399803,64.428864 104.267708,60.134621 
	C107.616173,60.869663 110.876152,61.046337 114.207954,61.030338 
	C129.102417,60.958817 143.997543,60.969543 158.892151,61.023129 
	C162.046097,61.034473 165.151611,60.901951 168.618912,60.001717 
	C171.550873,63.784912 174.056900,67.583328 176.642914,71.702072 
z"/>
<path fill="#FC5130" opacity="1.000000" stroke="none" 
	d="
M97.537903,85.228271 
	C118.190887,84.950478 138.624420,84.989708 159.057922,84.980873 
	C161.422272,84.979851 163.724136,84.939568 165.916962,86.951126 
	C157.684067,90.989349 149.946213,96.357399 141.554733,101.287544 
	C128.502457,100.057114 115.741463,100.895050 103.001740,100.647171 
	C100.539177,100.599258 98.004501,100.936462 95.348648,99.286011 
	C94.953079,94.369598 96.606491,90.032448 97.537903,85.228271 
z"/>
<path fill="#FD5E39" opacity="1.000000" stroke="none" 
	d="
M340.483093,83.636566 
	C338.565826,83.225037 337.114685,82.692703 335.329102,82.157936 
	C332.974579,81.282501 331.816895,80.243355 333.566650,77.952461 
	C334.834991,76.291855 335.761536,74.370171 337.058990,72.291397 
	C338.601624,71.139435 340.093872,71.184357 341.593262,71.200798 
	C362.796539,71.433380 384.000641,71.227356 405.204163,71.318771 
	C407.668182,71.329391 410.200500,71.049095 412.906311,72.631294 
	C414.134064,75.675125 414.937714,78.470787 415.739746,81.637993 
	C414.211700,83.663338 412.150452,83.627510 410.179626,83.627365 
	C387.102814,83.625618 364.025482,83.861176 340.483093,83.636566 
z"/>
<path fill="#FB4729" opacity="1.000000" stroke="none" 
	d="
M94.787643,99.346565 
	C107.700035,98.998718 120.432396,99.027428 133.164459,98.977859 
	C135.860367,98.967369 138.422958,99.251427 140.982880,101.065277 
	C135.000900,105.411652 129.193130,109.954437 123.360901,114.997940 
	C115.499870,114.093437 107.922859,114.839935 100.368057,114.599449 
	C97.915482,114.521378 95.404388,114.862648 92.770599,113.330078 
	C93.164757,108.570312 93.886139,104.132759 94.787643,99.346565 
z"/>
<path fill="#FE683F" opacity="1.000000" stroke="none" 
	d="
M346.761993,57.198746 
	C349.582825,57.769444 352.164398,58.042004 354.838531,58.032661 
	C372.538391,57.970814 390.238586,58.002579 408.397156,58.005768 
	C409.583160,60.421028 410.310669,62.834381 410.954590,65.626122 
	C409.027832,67.910500 406.596802,67.675156 404.302032,67.682579 
	C385.807831,67.742416 367.313324,67.748215 348.819183,67.677620 
	C346.373688,67.668282 343.740631,67.987877 341.870056,65.253609 
	C343.410889,62.297527 344.949097,59.842255 346.761993,57.198746 
z"/>
<path fill="#FE633C" opacity="1.000000" stroke="none" 
	d="
M341.590179,64.946381 
	C343.367371,66.717155 345.521088,65.963646 347.404358,65.968254 
	C368.253235,66.019310 389.102325,66.001152 410.411133,66.003113 
	C412.284027,67.804947 413.013031,69.873512 413.300476,72.503159 
	C389.695709,72.919373 366.060974,72.974350 342.426270,72.962669 
	C340.972229,72.961952 339.518433,72.435173 337.671021,72.085526 
	C338.620880,69.725250 339.964294,67.432610 341.590179,64.946381 
z"/>
<path fill="#FD5834" opacity="1.000000" stroke="none" 
	d="
M230.539825,169.780640 
	C233.150482,172.445938 234.563385,175.360947 236.136963,178.562546 
	C234.931808,181.041351 232.788574,181.490692 230.624222,181.538055 
	C217.733780,181.820221 204.841263,181.778076 191.949677,181.569107 
	C190.780212,181.550156 189.662430,181.236618 188.242935,180.325897 
	C185.801422,177.663895 185.474533,174.708786 185.132019,171.394012 
	C186.279907,169.808701 187.750259,169.465881 189.260757,169.455261 
	C202.879288,169.359589 216.498749,169.070496 230.539825,169.780640 
z"/>
<path fill="#FE633C" opacity="1.000000" stroke="none" 
	d="
M230.898163,169.676788 
	C226.152344,171.662476 221.172974,170.922470 216.263901,170.970459 
	C206.208588,171.068817 196.151672,171.003357 185.639038,171.008865 
	C184.622253,168.037994 185.557007,165.298767 186.760773,162.283340 
	C188.180893,160.951385 189.591309,160.467499 191.128159,160.456757 
	C202.102142,160.380051 213.077179,160.068878 224.462585,160.798874 
	C226.861313,163.810028 228.847000,166.574951 230.898163,169.676788 
z"/>
<path fill="#FB4B2C" opacity="1.000000" stroke="none" 
	d="
M187.899307,180.394684 
	C201.394913,180.037094 214.963150,180.003387 228.531357,180.013687 
	C230.859192,180.015457 233.160431,180.013809 235.768738,178.984192 
	C236.196213,178.912430 236.554886,178.963135 236.732666,178.997742 
	C237.000793,181.850845 239.508026,183.611191 240.087830,186.588379 
	C239.167847,189.154968 237.138947,189.511673 235.161530,189.526917 
	C222.627609,189.623657 210.090729,190.031952 197.087463,189.255707 
	C192.923035,187.179062 190.110931,184.301712 187.899307,180.394684 
z"/>
<path fill="#FF7045" opacity="1.000000" stroke="none" 
	d="
M224.793030,160.721359 
	C217.411041,162.979736 209.809036,161.666870 202.275681,161.964310 
	C197.506042,162.152618 192.722961,162.000305 187.477936,162.002396 
	C192.776962,148.218002 210.465851,144.979034 220.920120,155.825699 
	C222.290054,157.247025 223.452087,158.868729 224.793030,160.721359 
z"/>
<path fill="#F9361F" opacity="1.000000" stroke="none" 
	d="
M112.683212,123.930794 
	C104.150986,133.465912 96.009270,143.190125 88.325844,153.566681 
	C88.278328,143.853287 89.471611,134.311554 90.959320,124.393234 
	C98.110634,120.964661 105.224373,121.786072 112.683212,123.930794 
z"/>
<path fill="#FA4126" opacity="1.000000" stroke="none" 
	d="
M196.799377,189.437622 
	C198.554962,188.041061 200.671005,187.976135 202.839890,187.983734 
	C213.230225,188.020157 223.620773,188.008667 234.011215,187.991760 
	C235.808456,187.988846 237.657272,188.264740 239.723541,187.118805 
	C241.111420,189.378311 242.107697,191.807220 243.090820,194.615173 
	C241.068100,196.979218 238.477188,196.555405 236.039688,196.628036 
	C227.276566,196.889252 218.493484,196.157455 209.294632,197.285736 
	C206.821594,196.247894 204.798218,195.079117 202.436096,193.819260 
	C200.392868,192.392715 198.688400,191.057266 196.799377,189.437622 
z"/>
<path fill="#FA3D23" opacity="1.000000" stroke="none" 
	d="
M113.278275,124.218597 
	C106.008522,124.227180 99.009438,124.114075 91.547356,124.002167 
	C91.443298,120.610237 91.802238,117.217117 92.302277,113.415924 
	C100.928139,113.005142 109.413399,112.954147 117.897247,113.040634 
	C119.584335,113.057831 121.640724,112.182877 122.940521,114.707840 
	C119.216431,117.410561 116.959213,121.362411 113.278275,124.218597 
z"/>
<path fill="#FC5130" opacity="1.000000" stroke="none" 
	d="
M269.748901,146.775330 
	C269.993011,148.398331 270.032227,149.794724 269.978149,151.600159 
	C265.209106,157.323074 260.029846,162.144592 255.047531,167.158127 
	C253.303207,168.913406 251.466309,170.585312 248.473785,170.782684 
	C246.845215,168.576309 246.554901,166.129517 246.002716,163.385529 
	C251.537964,156.791092 257.660278,151.179001 263.508148,145.296616 
	C264.550781,144.247803 265.692902,143.190460 267.700195,143.787399 
	C268.504944,144.852951 269.024475,145.700821 269.748901,146.775330 
z"/>
<path fill="#FE633C" opacity="1.000000" stroke="none" 
	d="
M267.916870,143.667755 
	C264.825531,144.404984 263.545776,147.257126 261.480865,149.059052 
	C256.390686,153.500916 252.423813,159.144302 246.364761,162.963425 
	C244.643051,160.849411 245.037628,158.278214 244.341644,155.547897 
	C249.791153,149.763931 255.419235,144.553665 260.828308,138.632156 
	C264.050659,139.144852 266.128418,140.991867 267.916870,143.667755 
z"/>
<path fill="#FF7045" opacity="1.000000" stroke="none" 
	d="
M260.779510,138.267334 
	C257.330750,145.446548 251.632797,150.605988 244.702271,155.033661 
	C242.772018,142.948685 248.565613,136.813461 260.779510,138.267334 
z"/>
<path fill="#FA4529" opacity="1.000000" stroke="none" 
	d="
M248.103653,171.037201 
	C254.682907,167.161957 258.926788,161.035233 264.324005,156.193207 
	C265.907043,154.773026 267.030365,152.795441 269.548798,152.048340 
	C269.552216,154.816895 269.219574,157.624557 268.725525,160.789673 
	C262.417969,165.990875 257.798859,172.458679 251.175537,177.242294 
	C250.043900,175.711517 249.262619,174.105988 248.251709,172.250427 
	C248.040710,171.786407 248.059326,171.572403 248.103653,171.037201 
z"/>
<path fill="#E93626" opacity="1.000000" stroke="none" 
	d="
M222.423279,490.309418 
	C219.952576,490.305695 217.908707,490.184265 215.435913,489.965271 
	C213.464447,486.898071 215.789581,485.230713 217.340286,483.467346 
	C220.842209,479.485260 225.022293,476.139252 228.579773,471.679199 
	C231.220383,469.862366 233.626816,468.388702 236.948608,468.179413 
	C246.538010,468.449951 255.087280,465.202972 263.880188,463.269470 
	C265.789581,462.849579 267.602448,461.888153 270.030762,462.352081 
	C272.658539,462.690887 274.395050,463.650116 275.279053,466.251282 
	C271.736816,470.801697 267.925537,474.748962 263.194885,478.218689 
	C262.681671,478.286926 262.507904,478.236633 262.072784,478.112915 
	C256.623871,472.921478 256.612030,472.909637 251.659622,477.855042 
	C243.696121,485.807373 234.042526,489.790894 222.423279,490.309418 
z"/>
<path fill="#DB2E27" opacity="1.000000" stroke="none" 
	d="
M263.017761,478.622375 
	C266.175476,474.056915 269.734344,470.020264 274.701569,467.028320 
	C276.878754,466.266968 278.185486,467.478699 279.549164,468.287506 
	C283.448547,470.600311 287.864471,471.153931 292.499664,472.301514 
	C294.958801,474.954102 293.279999,476.837402 291.699524,478.515503 
	C288.637756,481.766510 285.490631,484.936615 282.288940,488.568909 
	C279.005463,488.619995 276.439423,487.126373 273.364014,486.038177 
	C269.355804,484.151947 266.157776,481.682220 263.017761,478.622375 
z"/>
<path fill="#D02C2B" opacity="1.000000" stroke="none" 
	d="
M282.392029,488.953979 
	C282.544800,484.996521 285.750671,483.109344 287.968933,480.488983 
	C289.742035,478.394501 292.660492,477.155640 292.997559,473.601440 
	C294.407806,471.183044 296.768250,471.846283 299.060364,471.179321 
	C313.183380,469.667450 323.219971,462.357819 330.391602,450.965332 
	C339.176147,437.010651 350.779083,426.187408 365.193909,418.290741 
	C366.784454,417.419403 368.236938,416.219208 370.560852,416.510193 
	C372.985199,419.207520 371.078033,420.976593 369.538025,422.651642 
	C366.500824,425.955200 363.237579,429.044495 360.064667,432.219147 
	C345.139740,447.152313 330.209747,462.080414 315.278412,477.007172 
	C311.519958,480.764435 307.663086,484.429413 304.280945,489.005127 
	C300.794800,490.522827 297.283417,489.898468 293.438965,490.442261 
	C289.639435,489.692078 286.051208,490.537659 282.392029,488.953979 
z"/>
<path fill="#C9292C" opacity="1.000000" stroke="none" 
	d="
M304.525330,489.306580 
	C304.035980,486.117188 306.251587,484.248993 308.246368,482.254089 
	C328.002380,462.496887 347.767609,442.748901 367.498901,422.967041 
	C368.976959,421.485168 371.046783,420.319183 371.004608,417.411743 
	C370.851105,414.371948 373.244141,414.122009 374.811310,413.204834 
	C377.236969,411.785217 379.837250,410.675446 382.647339,409.134827 
	C386.147766,407.506409 389.110992,405.633942 392.387573,404.465698 
	C397.947540,402.483337 401.705566,403.737488 404.798889,408.767761 
	C406.319153,416.296478 405.125031,418.663055 398.395447,422.157501 
	C395.461304,423.681122 392.537842,425.225250 389.304749,426.942627 
	C370.741608,435.064911 354.666779,445.605255 344.372375,463.429138 
	C340.600922,469.959137 335.075043,475.086334 328.879150,479.372101 
	C326.167694,481.247711 323.196442,482.747803 320.130707,484.690033 
	C314.760040,485.841949 310.231323,488.903839 304.525330,489.306580 
z"/>
<path fill="#F5ECFA" opacity="1.000000" stroke="none" 
	d="
M328.849426,169.205505 
	C331.481903,169.318451 332.779877,167.727081 334.193115,166.312988 
	C350.293884,150.202301 366.394775,134.091736 382.517700,118.003212 
	C384.075348,116.448891 385.419769,114.811165 385.988831,112.267838 
	C387.896118,111.246048 389.306732,112.273338 390.461823,113.407104 
	C393.534210,116.422791 397.134521,118.817841 400.438141,122.099518 
	C408.367767,129.957397 415.238190,138.259872 421.716583,146.890961 
	C422.882294,148.443985 424.490479,149.829361 424.301697,152.365356 
	C424.282288,155.074615 422.939178,156.667130 421.325012,158.196503 
	C411.856445,167.167679 403.330688,177.109436 393.264832,185.465225 
	C392.261322,186.298248 391.992004,187.336243 392.071838,188.931824 
	C391.321991,191.721405 388.987885,191.552277 387.217682,192.118484 
	C372.905823,196.696213 359.535187,203.120911 347.148071,212.302124 
	C339.921814,217.658035 333.343842,223.191879 327.607056,230.165039 
	C320.802765,237.103043 315.632019,244.793137 310.902954,253.241455 
	C308.120239,257.332916 306.578766,261.640381 304.682495,265.771484 
	C303.944672,267.378845 303.568390,269.207947 301.532532,270.299316 
	C299.783325,263.258911 298.695923,256.071136 296.932312,249.053253 
	C294.674286,240.067932 295.792755,230.731491 293.341400,221.710007 
	C291.984375,216.715881 292.790649,211.133942 292.462463,205.291779 
	C295.943268,200.346680 301.260956,198.429306 306.264008,195.426636 
	C309.990997,193.480499 312.674622,190.619888 316.308533,188.548889 
	C320.093628,186.257370 322.556549,183.118942 325.126709,179.628098 
	C326.676636,176.866943 327.121155,174.115616 327.791382,171.055878 
	C328.031342,170.239059 328.258850,169.810822 328.849426,169.205505 
z"/>
<path fill="#F4EAFB" opacity="1.000000" stroke="none" 
	d="
M239.695007,279.309753 
	C242.060699,279.267365 243.408203,278.123932 244.746887,276.776917 
	C252.832245,268.641296 260.873840,260.458801 269.123566,252.492340 
	C271.155701,250.529999 271.176361,247.063904 274.645142,246.038361 
	C276.654877,247.579010 276.451508,249.607559 276.310913,251.605225 
	C274.050446,283.719177 276.591827,315.486694 283.163422,346.966156 
	C283.668671,349.386444 284.659973,351.787262 283.306702,354.653076 
	C281.611755,359.382080 280.585052,363.862305 282.286072,368.322235 
	C283.551270,371.639526 282.954926,374.090973 279.910797,376.431641 
	C279.524994,376.731628 279.303925,376.659485 278.811249,376.366211 
	C276.880798,372.381836 274.294678,371.597473 270.430267,373.825928 
	C264.620605,373.497650 259.171997,373.326813 253.715866,373.445526 
	C244.324707,373.649811 235.904694,376.680115 228.364838,382.223755 
	C227.169586,383.102570 226.112885,384.193756 224.147766,384.235168 
	C221.672485,379.101196 225.377213,374.853485 225.571365,369.723724 
	C230.786041,348.697845 235.163391,327.955688 236.946808,306.746887 
	C237.529358,299.818909 237.928116,292.876495 238.443054,285.942932 
	C238.601624,283.807831 238.288788,281.613678 239.695007,279.309753 
z"/>
<path fill="#534854" opacity="1.000000" stroke="none" 
	d="
M345.905212,212.270752 
	C359.353271,201.025864 374.857849,194.209930 391.799255,189.533905 
	C398.322845,188.300797 404.533447,187.137421 410.787781,186.301300 
	C419.239502,185.171417 423.131165,189.317932 422.308868,197.847580 
	C420.224487,219.469040 412.948059,239.203293 401.008728,257.659851 
	C399.899292,259.272064 398.872833,260.545410 397.580231,261.973572 
	C395.532867,262.954834 394.467743,261.653717 393.468628,260.655334 
	C377.767090,244.964966 361.888885,229.450333 346.463531,213.484955 
	C346.237274,213.250778 346.114868,212.925766 345.905212,212.270752 
z"/>
<path fill="#4C404D" opacity="1.000000" stroke="none" 
	d="
M345.504639,212.008850 
	C350.678223,215.484283 354.506958,220.120651 358.762299,224.302872 
	C371.444611,236.767197 384.035004,249.325058 396.987701,261.987396 
	C392.218933,270.045898 385.597198,276.589569 378.344788,282.964539 
	C361.213104,266.760132 344.813812,250.029144 328.257660,233.455627 
	C327.326202,232.523224 326.410767,231.502747 326.659607,229.653214 
	C332.053589,222.670853 338.462219,217.217972 345.504639,212.008850 
z"/>
<path fill="#463946" opacity="1.000000" stroke="none" 
	d="
M326.449585,229.501099 
	C327.379608,231.331512 329.055420,232.535080 330.452881,233.935318 
	C345.045044,248.556290 359.667175,263.147339 374.247467,277.780121 
	C375.630859,279.168488 377.431244,280.269989 377.983521,282.727509 
	C371.907959,289.168304 364.768188,293.855530 357.006836,298.191589 
	C354.998444,298.582916 353.938171,297.683624 352.860321,296.527313 
	C341.577301,284.422760 329.485260,273.115662 318.002808,261.209778 
	C315.365112,258.474792 311.985992,256.604736 309.811707,253.231781 
	C314.078430,244.275314 319.833832,236.789917 326.449585,229.501099 
z"/>
<path fill="#EFE4F8" opacity="1.000000" stroke="none" 
	d="
M283.273132,355.253906 
	C281.252716,345.237244 279.404388,335.492371 277.796112,325.708038 
	C276.698578,319.030975 275.672852,312.322174 275.076294,305.586700 
	C273.622681,289.174988 273.963745,272.707184 274.032318,256.254578 
	C274.045380,253.118164 275.478363,250.096298 274.995972,246.442566 
	C275.280884,235.666763 276.872314,225.477585 278.471130,215.299820 
	C278.753693,213.501312 278.958191,211.736923 278.997498,209.502930 
	C280.214386,207.103333 282.022247,206.731979 284.499969,207.378784 
	C286.765137,221.158966 284.796906,234.917007 286.214630,248.415955 
	C288.632172,271.434753 288.959839,294.450989 289.207275,317.534821 
	C289.298920,326.083313 291.643036,334.676361 290.861084,343.265228 
	C290.150543,351.069641 290.080322,358.844604 289.979309,366.644562 
	C289.965393,367.720367 290.398834,369.350037 288.779999,369.456818 
	C287.402374,369.547699 287.163605,368.037292 286.840851,366.911591 
	C285.750397,363.108582 284.646393,359.309479 283.273132,355.253906 
z"/>
<path fill="#3F313F" opacity="1.000000" stroke="none" 
	d="
M309.675903,253.110565 
	C326.109650,266.396912 340.469849,281.709076 354.760223,297.092957 
	C355.090302,297.448334 355.554901,297.678772 356.320374,298.109253 
	C349.469147,302.723175 341.755920,306.115295 333.364624,308.835388 
	C321.736298,298.433838 311.175720,287.334686 300.117767,276.242249 
	C300.294891,274.358246 300.714569,272.724640 301.152710,270.731140 
	C304.053375,264.755524 305.624481,258.507538 309.675903,253.110565 
z"/>
<path fill="#FC5E3A" opacity="1.000000" stroke="none" 
	d="
M438.694244,288.131836 
	C440.627075,291.279480 438.339630,294.153503 438.008514,297.618469 
	C438.910370,300.192047 437.490875,301.860962 436.598175,303.545654 
	C432.002014,312.219177 426.228882,320.110809 420.379364,327.968140 
	C417.332275,332.061096 413.768524,335.840515 411.548401,340.958130 
	C406.105743,344.561401 400.344940,346.778961 394.367249,349.169373 
	C387.487061,352.116913 381.914276,356.610809 376.204468,360.898132 
	C374.186768,362.413239 372.175049,364.196106 369.546692,362.160339 
	C367.157135,360.309479 368.092621,358.035339 368.951263,355.813293 
	C370.148315,352.715546 371.330505,349.612061 372.765381,346.257843 
	C379.617798,340.396423 387.022156,335.903748 394.332245,331.355377 
	C400.868408,327.288605 405.566986,322.209442 407.639404,314.721741 
	C408.252777,312.505737 409.283020,310.377563 410.718872,308.091675 
	C410.915619,307.788635 410.960724,307.434265 410.996033,307.259155 
	C421.836823,303.264923 430.686066,296.600220 438.694244,288.131836 
z"/>
<path fill="#E4D4F2" opacity="1.000000" stroke="none" 
	d="
M300.282806,472.224274 
	C298.069214,472.746857 295.940125,472.921082 293.408508,473.173706 
	C286.692444,472.809814 280.646881,471.598541 275.376404,467.106384 
	C273.922241,465.738800 272.795898,464.487305 271.385620,463.095642 
	C270.896729,462.816681 270.691833,462.677887 270.744202,462.271484 
	C277.537964,461.787079 283.139282,458.536102 288.801605,455.955353 
	C307.497070,447.434357 324.457062,436.236969 340.038605,422.717926 
	C349.492035,414.515747 357.447876,405.022827 366.400330,396.068054 
	C367.158325,395.704254 367.598389,395.668854 368.277191,396.274719 
	C369.210693,400.471771 366.402344,402.707245 364.183929,405.014526 
	C353.505402,416.120850 342.820831,427.222382 332.099365,438.287689 
	C321.382996,449.347717 310.724091,460.471619 300.282806,472.224274 
z"/>
<path fill="#3B2C3B" opacity="1.000000" stroke="none" 
	d="
M299.616272,276.258087 
	C301.331604,275.960999 302.314850,276.809845 303.267975,277.764984 
	C312.821228,287.338196 322.388214,296.897644 331.927338,306.484863 
	C332.369629,306.929413 332.584808,307.599884 332.949860,308.497314 
	C323.479462,312.436066 313.567688,314.267822 303.476654,314.987518 
	C296.587341,315.478851 293.309021,311.993561 293.721375,305.128937 
	C294.308960,295.347443 296.373505,285.841583 299.616272,276.258087 
z"/>
<path fill="#3F313F" opacity="1.000000" stroke="none" 
	d="
M290.648376,387.790955 
	C295.056061,397.173767 294.169983,405.732819 287.028503,412.960754 
	C280.298401,419.772369 274.194946,427.288116 265.824768,432.895264 
	C260.313507,437.723633 254.639908,436.491760 248.534515,434.237915 
	C247.230927,433.571533 246.403076,432.937714 245.649323,431.695923 
	C245.350586,428.816254 247.258850,427.492004 248.746780,425.996399 
	C260.490662,414.191620 272.255463,402.407410 284.078613,390.682159 
	C285.773071,389.001678 287.274078,386.600739 290.648376,387.790955 
z"/>
<path fill="#4C404D" opacity="1.000000" stroke="none" 
	d="
M278.778442,376.010864 
	C278.963898,376.358429 279.265564,376.738190 279.505798,376.770996 
	C280.444794,377.267212 281.143524,377.730591 281.982422,378.404999 
	C283.630676,381.752045 280.995514,383.197662 279.369751,384.843140 
	C268.276672,396.071045 257.085785,407.202301 245.918182,418.356415 
	C243.801941,420.470093 241.717438,422.612183 239.403534,425.035828 
	C234.666992,424.588287 232.754303,420.969635 230.314026,417.496643 
	C229.973297,414.008698 232.357697,412.411621 234.185043,410.564606 
	C246.358017,398.260559 258.720642,386.145081 271.154724,373.595581 
	C274.328033,372.691620 276.625183,373.654205 278.778442,376.010864 
z"/>
<path fill="#FA4529" opacity="1.000000" stroke="none" 
	d="
M248.096832,433.202942 
	C253.925079,435.028473 259.368347,435.584198 265.181244,433.145691 
	C265.623260,438.519226 265.613190,443.934845 265.835388,449.340912 
	C266.022369,453.890503 267.905060,457.893799 270.708008,461.812866 
	C271.001495,462.003876 271.031250,462.481873 271.066467,462.718689 
	C261.777588,465.121094 252.446838,467.258636 243.134842,469.474976 
	C241.166306,469.943512 239.270950,470.433411 237.127441,469.024841 
	C236.757217,466.399292 238.433075,465.113281 239.778671,463.695190 
	C244.479614,458.741119 246.621414,452.910278 246.630157,446.059235 
	C246.635590,441.816071 245.579208,437.411255 248.096832,433.202942 
z"/>
<path fill="#463946" opacity="1.000000" stroke="none" 
	d="
M238.843292,425.111053 
	C239.180786,422.490234 241.100067,421.444702 242.464523,420.072845 
	C254.436676,408.035736 266.465454,396.054901 278.445618,384.025696 
	C279.827515,382.638123 281.620148,381.516724 282.070374,378.986450 
	C286.157990,380.396332 288.791992,383.589569 290.919189,387.660522 
	C289.124390,387.800232 287.815735,388.649689 286.578003,389.898438 
	C273.153290,403.443054 259.699707,416.959015 246.110336,430.789520 
	C242.169540,430.962677 239.872055,428.886871 238.843292,425.111053 
z"/>
<path fill="#E1D0EF" opacity="1.000000" stroke="none" 
	d="
M394.003601,349.429199 
	C398.969086,345.417053 404.711182,343.399750 410.675995,340.992798 
	C415.275970,337.187042 420.155792,337.080078 425.641296,338.618256 
	C426.449493,338.954773 426.892883,339.030548 427.664948,339.185913 
	C429.830444,341.767731 427.709747,343.199768 426.435638,344.792755 
	C422.619843,349.563629 417.247009,352.940918 413.994293,358.709320 
	C413.605194,359.176392 413.435028,359.352051 412.972229,359.751404 
	C402.835205,362.970154 393.966827,368.124115 384.446533,372.440979 
	C383.796906,368.854614 386.078949,366.489716 387.506378,363.716949 
	C389.846558,359.171234 392.758148,354.869537 394.003601,349.429199 
z"/>
<path fill="#FB4729" opacity="1.000000" stroke="none" 
	d="
M368.324158,397.226685 
	C367.753387,396.724945 367.500244,396.467163 366.987976,396.120239 
	C366.469482,394.912354 366.210144,393.793701 366.070068,392.343567 
	C380.262054,382.838593 393.871521,372.978333 407.964325,363.834930 
	C409.652802,362.739441 411.089111,361.360565 412.830566,359.800507 
	C413.141602,359.632812 413.086029,359.357452 413.064575,359.218628 
	C417.151886,356.582306 421.681000,356.539642 426.650085,356.933289 
	C430.051208,359.111725 428.108673,360.787567 426.429382,362.110535 
	C423.433044,364.471191 420.321045,366.694763 417.140198,368.813751 
	C407.741180,375.075073 398.347870,381.344971 388.945312,387.601013 
	C386.586609,389.170349 384.255096,390.760437 382.457642,393.522461 
	C378.004028,396.238098 373.585114,397.825043 368.324158,397.226685 
z"/>
<path fill="#FE683F" opacity="1.000000" stroke="none" 
	d="
M410.557983,307.848694 
	C408.691498,315.994537 407.074799,324.498657 399.050323,329.584534 
	C390.563416,334.963501 382.659454,341.247070 373.365753,345.965485 
	C380.100983,328.125488 393.002594,315.920197 410.557983,307.848694 
z"/>
<path fill="#F9361F" opacity="1.000000" stroke="none" 
	d="
M285.161926,207.376129 
	C283.143433,207.979248 281.417908,208.376205 279.344299,208.922348 
	C269.623108,208.743561 268.154449,206.428055 270.673096,195.285797 
	C272.364655,193.722519 274.130676,193.392075 275.978638,193.369827 
	C284.388092,193.268585 292.798096,193.254333 301.207092,193.381744 
	C303.187347,193.411758 305.191437,193.571854 306.911896,195.625031 
	C302.339264,198.804901 297.535217,201.546326 292.517151,204.527176 
	C290.020386,205.567719 287.737640,206.368835 285.161926,207.376129 
z"/>
<path fill="#FC5130" opacity="1.000000" stroke="none" 
	d="
M412.769989,359.595032 
	C413.039490,361.455139 412.039398,362.692627 410.583771,363.674011 
	C397.256439,372.658936 383.947815,381.671753 370.590302,390.611481 
	C369.530365,391.320892 368.145020,391.544159 366.550140,392.002747 
	C370.731171,384.416870 377.126099,378.519623 383.932556,372.567444 
	C392.848419,366.518646 401.959961,361.564484 412.769989,359.595032 
z"/>
<path fill="#F9361F" opacity="1.000000" stroke="none" 
	d="
M424.460083,152.884888 
	C417.497345,141.957047 408.991150,132.775909 400.039795,123.549744 
	C398.848541,120.342056 400.751587,119.015648 402.977356,118.802200 
	C409.179413,118.207397 415.445770,117.338730 422.022034,119.680847 
	C422.975464,123.339867 423.481079,126.766632 424.086487,130.595459 
	C424.812286,138.259918 425.443512,145.521866 426.039795,152.786697 
	C426.057953,153.007874 425.749176,153.393509 425.524475,153.455765 
	C425.325256,153.510956 425.030792,153.222305 424.460083,152.884888 
z"/>
<path fill="#FC5533" opacity="1.000000" stroke="none" 
	d="
M340.313293,83.966484 
	C340.919067,80.906723 343.324646,82.056290 345.081299,82.050720 
	C368.332764,81.976929 391.584534,82.004547 415.287231,82.008179 
	C416.609802,86.045616 417.481384,90.081696 418.355347,94.544556 
	C416.134521,96.937263 413.390656,96.629257 410.755280,96.639984 
	C398.110168,96.691490 385.464752,96.619980 372.819641,96.688545 
	C370.828979,96.699333 368.829895,96.796944 366.446228,97.467972 
	C357.546204,93.162979 349.077911,88.669289 340.313293,83.966484 
z"/>
<path fill="#FB4B2C" opacity="1.000000" stroke="none" 
	d="
M366.336823,97.822052 
	C366.019287,94.043648 368.759125,95.038834 370.684326,95.031387 
	C386.242950,94.971207 401.801880,94.992218 417.859192,94.979889 
	C419.178619,99.053230 419.999542,103.135132 420.794189,107.611725 
	C419.470947,109.065323 417.944458,108.707626 416.475983,108.698708 
	C405.890320,108.634438 395.297913,108.173798 384.280579,109.288925 
	C377.557373,106.381439 372.557495,101.504555 366.336823,97.822052 
z"/>
<path fill="#FA4126" opacity="1.000000" stroke="none" 
	d="
M383.972992,109.582550 
	C385.179749,107.590210 387.225311,107.109802 389.148956,107.083496 
	C398.468445,106.956032 407.790894,107.008278 417.111786,107.072746 
	C418.066956,107.079353 419.018646,107.591293 420.369934,107.937576 
	C421.343689,111.684029 421.919464,115.361656 422.482544,119.476196 
	C416.565338,119.942383 410.660858,119.975891 404.756287,119.998596 
	C402.759338,120.006271 400.698914,119.864174 399.965424,122.849770 
	C395.482452,119.559647 391.073151,115.861336 386.346832,112.036667 
	C385.392090,111.217522 384.754364,110.524742 383.972992,109.582550 
z"/>
<path fill="#D6C3E6" opacity="1.000000" stroke="none" 
	d="
M405.082397,408.830627 
	C399.254150,403.733368 397.095306,403.428986 390.038116,407.007751 
	C387.969482,408.056793 385.882355,409.069397 383.445618,410.169769 
	C381.367920,407.965607 383.384369,406.556274 384.423279,405.059082 
	C388.120941,399.730347 393.445801,395.864624 397.715271,390.556152 
	C402.982758,389.582703 407.981110,388.941803 413.495178,389.264313 
	C415.793915,389.565674 417.644745,389.929047 419.787781,390.497833 
	C417.732788,396.658264 411.706573,399.623169 408.514374,404.916168 
	C407.691101,406.281250 406.337433,407.326477 405.082397,408.830627 
z"/>
<path fill="#FA5332" opacity="1.000000" stroke="none" 
	d="
M426.047363,338.540833 
	C421.206299,339.050049 416.425873,339.364899 411.404694,340.818512 
	C410.761383,335.158295 415.683441,332.282593 418.402374,328.501709 
	C425.347290,318.844299 432.454346,309.361176 437.859558,298.319550 
	C442.921295,296.504242 447.916321,295.581573 453.544006,296.000671 
	C454.138245,299.205200 452.311127,301.741455 450.802155,304.227051 
	C444.022217,315.395111 436.256042,325.865723 427.742554,335.780701 
	C427.109558,336.517883 426.636169,337.392151 426.047363,338.540833 
z"/>
<path fill="#DFCDED" opacity="1.000000" stroke="none" 
	d="
M428.285400,358.096802 
	C423.231018,357.475586 418.604919,358.634216 413.479797,359.101318 
	C414.845245,352.360870 421.295471,349.461975 425.123871,344.405121 
	C426.195068,342.990143 428.025146,342.087524 427.987488,339.613190 
	C435.446075,338.985657 442.306732,336.929779 448.681763,332.364624 
	C449.423157,334.868866 447.951019,336.528748 446.277618,338.284027 
	C440.703979,344.130219 434.136230,349.093323 430.036713,356.646759 
	C430.146393,358.095337 429.485474,358.367188 428.285400,358.096802 
z"/>
<path fill="#DFCDED" opacity="1.000000" stroke="none" 
	d="
M397.658478,390.271484 
	C398.306213,392.895172 396.304779,394.111664 394.855743,395.637878 
	C390.674591,400.041809 385.784973,403.843048 383.091187,409.875732 
	C379.216064,412.341217 375.344574,414.441589 371.243256,416.795959 
	C354.417511,424.340485 341.547760,435.932800 331.911530,451.168579 
	C325.740997,460.924835 317.559692,468.016113 306.330811,471.263763 
	C304.588379,471.767731 302.790375,472.079529 300.608185,472.526428 
	C300.038452,466.340820 305.855927,464.315613 309.083008,460.716888 
	C319.050568,449.601379 329.928070,439.307098 340.053772,428.326477 
	C348.988342,418.637512 358.956390,409.913757 367.031616,399.430389 
	C367.424683,398.920074 367.633881,398.268097 367.967590,397.332397 
	C372.722900,396.806488 376.901550,394.600647 381.678040,393.244690 
	C385.873718,389.768890 390.738129,390.423004 395.628784,389.890137 
	C396.441376,390.121033 396.883698,390.171051 397.658478,390.271484 
z"/>
<path fill="#FA4126" opacity="1.000000" stroke="none" 
	d="
M396.035889,389.717804 
	C391.905334,392.374847 387.136719,391.772949 382.410553,393.087952 
	C382.267181,390.382874 384.292969,389.180450 386.234863,387.871704 
	C398.890167,379.342804 411.553070,370.824707 424.152954,362.214539 
	C425.576813,361.241486 427.655762,360.759277 427.965881,358.174683 
	C428.509918,357.634491 429.023560,357.457977 429.767822,357.137756 
	C433.888550,357.319916 437.530151,356.085571 441.616333,355.206146 
	C441.549133,357.773651 439.527313,358.929749 437.595001,360.230347 
	C425.006500,368.703400 412.420868,377.181213 399.897644,385.750000 
	C398.479279,386.720490 396.423431,387.196045 396.035889,389.717804 
z"/>
<path fill="#F2E6FA" opacity="1.000000" stroke="none" 
	d="
M238.752594,424.657288 
	C240.756302,427.223633 243.018356,429.096008 245.636826,431.018829 
	C246.628967,431.630249 247.291229,432.164276 248.221924,432.890625 
	C248.476074,436.722290 248.351532,440.365173 248.468643,444.000275 
	C248.789688,453.964447 245.180496,462.053497 237.061066,468.422668 
	C234.483383,469.780243 232.080383,470.864716 229.344589,472.092285 
	C223.830200,476.126160 217.987732,474.410034 212.382858,473.997559 
	C209.309296,473.771393 206.265045,472.830505 202.929169,471.691040 
	C191.934998,465.891510 183.336792,458.178131 177.606537,447.027557 
	C174.523438,442.162018 170.157471,438.727417 167.573181,433.566040 
	C175.143661,427.230621 181.520920,419.986450 188.172791,413.056519 
	C190.724670,410.398010 191.371735,406.507172 190.975708,402.750305 
	C190.122650,394.658447 191.502121,387.291473 197.248596,381.105499 
	C198.501999,379.756195 199.166489,377.963623 198.986130,376.044495 
	C198.171722,367.378876 200.393066,359.356659 203.675262,351.425964 
	C208.359634,340.107269 209.480972,327.985107 210.987778,315.611816 
	C213.107712,312.944153 215.808273,312.266876 219.174606,312.670288 
	C223.032532,318.551483 221.302475,324.668793 221.104309,330.626251 
	C220.991669,334.012817 219.716690,337.401276 221.463318,341.109253 
	C222.869034,348.528809 223.003235,355.628418 222.518723,362.776825 
	C222.307343,365.895538 222.250534,369.056091 222.644974,372.331299 
	C224.173462,371.634735 224.329605,369.265411 226.694611,369.790039 
	C226.431107,374.705383 224.108444,379.061157 224.317535,384.350525 
	C224.781433,388.202393 222.562576,391.025726 222.356613,394.361053 
	C221.955643,400.854340 222.796356,406.839752 227.513596,411.787964 
	C228.753876,413.088959 229.907028,414.515594 230.815308,416.520264 
	C233.529755,419.371368 235.992325,421.949951 238.752594,424.657288 
z"/>
<path fill="#403240" opacity="1.000000" stroke="none" 
	d="
M202.614182,251.010742 
	C205.901260,256.802063 208.824875,262.597656 211.960815,268.693024 
	C213.635742,269.926239 214.202560,271.246918 213.775116,273.307495 
	C202.237076,284.903778 191.053940,296.390472 179.282364,307.782837 
	C170.938019,305.948120 163.651184,302.145355 156.204636,297.819214 
	C156.537949,295.261292 157.973083,293.493378 159.652939,291.820099 
	C172.369034,279.153839 185.044708,266.446960 197.746933,253.766739 
	C199.016525,252.499359 200.110031,250.883011 202.614182,251.010742 
z"/>
<path fill="#3B2C3B" opacity="1.000000" stroke="none" 
	d="
M179.282013,308.232941 
	C178.999664,306.730713 179.677963,305.820038 180.527466,304.971954 
	C190.423477,295.092834 200.300644,285.194733 210.228546,275.347809 
	C210.895569,274.686249 211.931625,274.396729 213.172668,273.866058 
	C214.956039,274.278290 215.727875,275.414001 216.023483,276.719818 
	C218.182434,286.257019 221.760376,295.533691 221.464355,305.528534 
	C221.396469,307.820953 221.667542,310.263855 219.085953,312.055054 
	C216.647598,313.803131 214.569901,315.305939 211.382950,315.176575 
	C200.198792,314.473999 189.724808,312.196899 179.282013,308.232941 
z"/>
<path fill="#FC5130" opacity="1.000000" stroke="none" 
	d="
M124.317818,391.520905 
	C123.983978,388.748108 122.117592,387.740997 120.225182,386.587463 
	C106.297523,378.097900 92.395760,369.565430 78.527840,360.978668 
	C76.762665,359.885681 74.567612,359.081940 74.036667,356.270752 
	C81.731689,356.893463 89.460510,357.871063 97.591949,358.973907 
	C113.136612,369.079803 128.510330,378.683716 144.590134,387.816040 
	C145.543259,388.757568 146.260193,389.436340 146.893021,390.186066 
	C148.180679,391.711670 148.612900,393.434448 147.484955,395.192566 
	C146.214890,397.172211 144.330078,397.272217 142.228531,396.669495 
	C136.368301,394.988861 130.490601,393.369019 124.317818,391.520905 
z"/>
<path fill="#FD5E39" opacity="1.000000" stroke="none" 
	d="
M167.261322,433.083191 
	C171.000183,437.247375 174.445343,441.281891 177.990753,445.642731 
	C174.469894,449.869598 170.875214,453.797577 166.264771,457.090454 
	C159.017929,448.489746 151.288452,440.746094 141.295242,434.995850 
	C140.789856,434.529236 140.473526,434.163208 140.581833,433.943481 
	C143.171112,428.689819 146.650223,424.354828 152.896744,422.737610 
	C158.495438,425.325775 162.582367,429.343170 167.261322,433.083191 
z"/>
<path fill="#FE683F" opacity="1.000000" stroke="none" 
	d="
M153.047684,422.607239 
	C147.893906,425.231964 144.617584,429.809265 141.060623,434.459656 
	C141.016113,434.787903 140.531296,434.846130 140.287170,434.848816 
	C131.750885,430.463470 123.458748,426.075439 114.931961,421.425232 
	C116.525261,415.481323 121.389595,412.451172 125.846085,408.621948 
	C135.068420,413.084991 143.959503,417.701630 153.047684,422.607239 
z"/>
<path fill="#FD5C37" opacity="1.000000" stroke="none" 
	d="
M144.766769,387.729401 
	C141.354828,388.532318 138.916855,386.247131 136.275040,384.618988 
	C124.695129,377.482269 113.142319,370.300934 101.635414,363.047333 
	C100.304779,362.208557 98.467506,361.728668 98.040924,359.439789 
	C107.157402,359.962067 115.328529,363.630768 123.591400,368.111267 
	C131.620895,373.770660 138.855759,379.824524 144.766769,387.729401 
z"/>
<path fill="#FF7045" opacity="1.000000" stroke="none" 
	d="
M125.919418,408.257019 
	C123.403290,413.327148 118.310997,416.140930 115.000626,420.978638 
	C109.307220,418.612976 107.309105,414.295319 109.368050,409.647339 
	C111.389969,405.083008 116.376572,403.585999 121.683105,405.993164 
	C123.040314,406.608826 124.336990,407.357910 125.919418,408.257019 
z"/>
<path fill="#F44229" opacity="1.000000" stroke="none" 
	d="
M201.706924,469.799133 
	C210.571640,472.930756 219.220535,474.195892 228.595947,472.239655 
	C227.055984,476.805389 222.728638,479.283142 219.615509,482.832794 
	C217.881668,484.809723 215.758560,486.463257 215.047394,489.524841 
	C204.856476,489.719696 195.951279,485.730835 187.025146,480.753082 
	C186.293243,480.183319 185.858109,479.751709 185.218536,479.089355 
	C183.686203,476.197418 185.740768,474.821136 187.282883,473.485504 
	C191.317200,469.991302 196.150208,469.219879 201.706924,469.799133 
z"/>
<path fill="#FC5130" opacity="1.000000" stroke="none" 
	d="
M201.889893,469.473145 
	C200.994064,471.464386 199.215210,470.905396 197.638672,470.994507 
	C192.252991,471.298920 187.786636,473.183411 185.057617,478.521881 
	C176.613708,473.723358 171.146912,465.948669 165.999817,457.482910 
	C169.328751,453.023560 172.762421,448.921082 177.740814,446.011108 
	C181.709595,449.386261 183.093140,454.341339 186.626663,457.924866 
	C191.117554,462.479401 195.884018,466.478455 201.889893,469.473145 
z"/>
<path fill="#F0E8F8" opacity="1.000000" stroke="none" 
	d="
M218.778107,312.645630 
	C222.121994,305.903656 219.765793,299.492218 218.722931,293.279388 
	C217.652679,286.903320 215.554520,280.699799 213.727753,274.109344 
	C213.097717,272.435425 212.646149,271.072876 212.183853,269.351562 
	C216.222931,266.926331 216.073395,262.731140 215.834122,259.467102 
	C214.851425,246.061356 219.872208,233.279358 219.370789,219.864197 
	C219.196594,215.203934 221.288422,210.205124 220.991943,204.741913 
	C226.098495,203.778687 230.223770,206.527893 234.808411,208.734329 
	C234.959793,211.496277 234.843628,213.929413 235.948181,216.608734 
	C233.810669,222.161240 233.733276,227.674225 233.652435,233.100403 
	C233.469040,245.409927 231.787857,257.612305 231.186386,269.858795 
	C230.559128,282.630310 228.255768,295.268677 228.566559,308.093597 
	C228.827347,318.854492 225.995209,329.147552 223.466995,339.472382 
	C223.228531,340.446289 222.758484,341.336487 221.454239,341.978577 
	C217.304459,338.933960 219.061508,334.954010 219.444351,331.364410 
	C220.098923,325.226959 220.697083,319.149292 218.778107,312.645630 
z"/>
<path fill="#EDE4F7" opacity="1.000000" stroke="none" 
	d="
M221.000000,342.463837 
	C223.786209,332.854584 226.696365,323.531982 226.711914,314.051300 
	C226.731323,302.219177 228.679871,290.598236 228.984711,278.842194 
	C229.272385,267.747864 230.999283,256.785400 231.854263,245.744568 
	C232.442963,238.142120 231.253372,230.458893 232.964371,222.896179 
	C233.432907,220.825226 233.348297,218.607239 235.630646,217.073151 
	C237.248825,229.583527 238.742737,242.147263 239.664551,254.752823 
	C240.230270,262.489014 239.919968,270.289307 240.004272,278.529175 
	C239.641312,309.634491 235.101181,339.673950 227.047852,369.608276 
	C224.154572,370.568695 224.792877,373.320679 223.837875,375.070618 
	C223.428452,375.820892 222.990173,376.620819 222.054688,376.465302 
	C221.026962,376.294464 221.049423,375.308502 221.022202,374.490784 
	C220.989166,373.498383 221.000793,372.504333 221.000671,371.511017 
	C220.999557,361.983246 221.000000,352.455444 221.000000,342.463837 
z"/>
<path fill="#FD5834" opacity="1.000000" stroke="none" 
	d="
M328.488037,170.642731 
	C329.031464,174.098434 327.948486,176.870102 326.449646,179.831818 
	C324.147400,181.368439 321.887543,181.690582 319.536285,181.690689 
	C308.139008,181.691162 296.741547,181.749710 285.344574,181.653549 
	C282.866577,181.632629 280.354340,181.564789 278.065002,179.334808 
	C278.731659,175.743088 280.848145,173.211700 282.768066,170.218140 
	C285.036896,168.583817 287.320831,168.328232 289.692902,168.328217 
	C300.180817,168.328094 310.668915,168.281021 321.156494,168.360580 
	C323.632660,168.379364 326.208832,168.254837 328.488037,170.642731 
z"/>
<path fill="#FB4B2C" opacity="1.000000" stroke="none" 
	d="
M277.523926,179.137299 
	C281.767151,180.401825 285.918213,179.983795 290.025299,179.992935 
	C301.753052,180.018997 313.480865,180.014725 325.688721,180.038452 
	C324.221527,183.741333 321.464294,186.688370 317.683899,189.074188 
	C304.576416,190.191238 291.773773,189.578705 278.976959,189.484299 
	C277.298462,189.471924 275.689392,188.967926 274.134338,187.355499 
	C274.334351,184.124985 276.123138,181.883484 277.523926,179.137299 
z"/>
<path fill="#FE633C" opacity="1.000000" stroke="none" 
	d="
M328.891785,170.680038 
	C325.786438,169.812607 322.619568,169.986969 319.460510,169.992844 
	C307.630615,170.014832 295.800659,170.005783 283.504700,170.011612 
	C284.306244,166.783432 286.620117,164.229721 288.852478,161.246826 
	C290.083252,160.378448 291.117340,159.689362 292.269623,159.646393 
	C303.018280,159.245514 313.770660,158.835159 324.508636,159.882416 
	C324.992981,159.929642 325.418213,160.271072 326.274841,160.757523 
	C328.049866,163.240631 328.603333,165.711075 329.063721,168.618805 
	C329.093872,169.448242 329.033875,169.898529 328.891785,170.680038 
z"/>
<path fill="#F9361F" opacity="1.000000" stroke="none" 
	d="
M235.415161,209.015137 
	C230.479782,207.758560 225.926407,206.531525 221.328979,204.377274 
	C217.090439,202.168472 213.191132,200.034897 209.068390,197.658997 
	C209.250397,194.491699 211.514038,195.017899 213.419373,195.012711 
	C222.989334,194.986588 232.559387,194.999115 242.603531,194.996155 
	C244.299957,196.341156 244.109467,198.105225 244.341125,199.695114 
	C245.317139,206.393387 243.026749,208.831406 235.415161,209.015137 
z"/>
<path fill="#FF7045" opacity="1.000000" stroke="none" 
	d="
M326.595398,160.714066 
	C314.469147,161.025681 302.254364,161.023178 289.579315,161.031860 
	C298.058624,144.951157 318.983521,146.440567 326.595398,160.714066 
z"/>
<path fill="#FA4126" opacity="1.000000" stroke="none" 
	d="
M273.598328,187.185791 
	C282.736298,189.094833 291.757874,187.475464 300.693848,188.012329 
	C305.973969,188.329559 311.330261,187.138199 316.951965,188.983032 
	C314.185455,191.422592 311.007355,193.690323 307.486267,196.010757 
	C304.698059,194.570465 301.979340,195.021393 299.342133,195.012390 
	C290.181305,194.981064 281.020355,194.998932 271.384155,194.996155 
	C270.924286,192.214355 272.443817,189.916031 273.598328,187.185791 
z"/>
<path fill="#FA3D23" opacity="1.000000" stroke="none" 
	d="
M250.883148,177.655258 
	C256.066803,171.481155 260.918091,165.236435 268.180267,161.131042 
	C267.276123,166.739120 265.953979,172.333664 263.384460,177.503876 
	C261.999847,180.289886 260.681122,183.720261 257.044830,183.794815 
	C253.609024,183.865234 252.339340,180.625931 250.883148,177.655258 
z"/>
<path fill="#534854" opacity="1.000000" stroke="none" 
	d="
M231.100403,416.463287 
	C219.879730,407.318176 217.679138,397.344818 224.278961,385.103027 
	C231.047745,376.090607 240.814926,373.685577 250.792648,372.056793 
	C257.215698,371.008301 263.705780,371.636322 270.480835,373.194092 
	C271.048798,373.312866 271.198792,373.411499 271.184143,373.723206 
	C270.975037,376.247131 269.114807,377.353577 267.742798,378.731720 
	C256.702026,389.821381 245.614746,400.864716 234.575714,411.956116 
	C233.307220,413.230621 231.672775,414.243195 231.100403,416.463287 
z"/>
<path fill="#F1E4FA" opacity="1.000000" stroke="none" 
	d="
M271.400818,373.938751 
	C271.019440,373.936279 270.943115,373.577942 270.920959,373.396088 
	C274.759491,369.523834 277.342377,370.266602 278.971863,375.948242 
	C276.570007,375.552673 274.176086,374.746948 271.400818,373.938751 
z"/>
</svg>